<svg width="628" height="628" viewBox="0 0 628 628" fill="none" xmlns="http://www.w3.org/2000/svg">
<path d="M77.5388 322.055C42.1708 297.304 19 255.971 19 209.162C19 133.41 79.6836 72 154.541 72C215.374 72 266.847 112.556 283.998 168.407C325.003 267.39 343.004 303.28 486.588 303.417C488.403 303.335 490.228 303.293 492.063 303.293C493.533 303.293 494.996 303.32 496.453 303.373C498.509 303.353 500.589 303.326 502.694 303.293C503.078 303.483 503.457 303.676 503.832 303.871C562.888 309.708 609 358.998 609 418.939C609 482.809 556.646 534.586 492.063 534.586C455.976 534.586 423.708 518.42 402.257 493.012C400.446 491.467 398.635 489.915 396.824 488.363C351.101 449.172 305.416 410.015 264.077 498.388C252.485 531.936 220.932 556 183.825 556C136.884 556 98.8301 517.491 98.8301 469.988C98.8301 449.679 105.786 431.013 117.418 416.299L117.333 416.25C117.617 415.949 117.898 415.65 118.177 415.352C120.237 412.821 122.437 410.41 124.766 408.133C161.336 366.805 147.561 357.838 108.87 338.343C97.939 334.385 87.6572 329.047 78.2296 322.536C77.9763 322.397 77.7225 322.258 77.4683 322.119L77.5388 322.055Z" fill="#656565"/>
<path d="M343.234 195.715C343.234 246.217 383.69 287.156 433.595 287.156C483.499 287.156 523.955 246.217 523.955 195.715C523.955 145.213 483.499 104.273 433.595 104.273C383.69 104.273 343.234 145.213 343.234 195.715Z" fill="#656565"/>
<path d="M148.038 448C105.038 448 73.3379 438.1 52.9379 418.3C32.5379 398.5 22.3379 371 22.3379 335.8C22.3379 300.8 32.5379 273.5 52.9379 253.9C73.5379 234.1 105.238 224.2 148.038 224.2C190.838 224.2 222.438 234.1 242.838 253.9C263.238 273.5 273.438 300.8 273.438 335.8C273.438 371 263.238 398.5 242.838 418.3C222.438 438.1 190.838 448 148.038 448ZM148.338 395.5C166.738 395.5 180.138 389.9 188.538 378.7C196.938 367.3 201.138 353 201.138 335.8C201.138 318.8 196.938 304.7 188.538 293.5C180.138 282.1 166.738 276.4 148.338 276.4C129.338 276.4 115.538 282.1 106.938 293.5C98.5379 304.7 94.3379 318.8 94.3379 335.8C94.3379 352.8 98.5379 367 106.938 378.4C115.538 389.8 129.338 395.5 148.338 395.5ZM372.736 392.5C437.736 388.9 488.136 384.9 523.936 380.5C520.536 390.9 517.936 401.9 516.136 413.5C514.336 425.1 513.436 435.6 513.436 445H298.936L298.636 438.7C298.636 419.1 304.336 402.1 315.736 387.7C327.336 373.3 343.436 360 364.036 347.8C370.036 344.2 379.436 339.6 392.236 334C408.836 326.8 421.636 320.5 430.636 315.1C439.636 309.5 444.136 304 444.136 298.6C444.136 291.8 441.336 286.4 435.736 282.4C430.136 278.4 421.436 276.4 409.636 276.4C396.636 276.4 386.736 279.7 379.936 286.3C373.336 292.9 370.036 301.3 370.036 311.5C370.036 314.7 370.336 318 370.936 321.4C345.736 318.2 321.236 316 297.436 314.8C297.436 297.8 301.836 282.5 310.636 268.9C319.636 255.1 333.036 244.2 350.836 236.2C368.836 228.2 390.836 224.2 416.836 224.2C440.636 224.2 460.436 227.5 476.236 234.1C492.236 240.5 503.936 248.7 511.336 258.7C518.936 268.5 522.736 278.6 522.736 289C522.736 301 520.036 311.3 514.636 319.9C509.436 328.5 501.836 336.2 491.836 343C482.036 349.6 468.836 356.8 452.236 364.6C449.836 365.8 445.936 367.2 440.536 368.8C435.136 370.2 431.736 371.1 430.336 371.5C416.136 375.7 404.836 379.2 396.436 382C388.036 384.8 380.136 388.3 372.736 392.5ZM576.724 448C567.924 448 560.424 444.9 554.224 438.7C548.024 432.3 544.924 424.7 544.924 415.9C544.924 407.1 548.024 399.6 554.224 393.4C560.424 387.2 567.924 384.1 576.724 384.1C585.324 384.1 592.724 387.3 598.924 393.7C605.324 399.9 608.524 407.3 608.524 415.9C608.524 424.7 605.324 432.3 598.924 438.7C592.724 444.9 585.324 448 576.724 448Z" fill="#A5FF14"/>
</svg>
