<svg width="641" height="628" viewBox="0 0 641 628" fill="none" xmlns="http://www.w3.org/2000/svg">
<path d="M84.5388 322.055C49.1708 297.304 26 255.971 26 209.162C26 133.41 86.6836 72 161.541 72C222.374 72 273.847 112.556 290.998 168.407C332.003 267.39 350.004 303.28 493.588 303.417C495.403 303.335 497.228 303.293 499.063 303.293C500.533 303.293 501.996 303.32 503.453 303.373C505.509 303.353 507.589 303.326 509.694 303.293C510.078 303.483 510.457 303.676 510.832 303.871C569.888 309.708 616 358.998 616 418.939C616 482.809 563.646 534.586 499.063 534.586C462.976 534.586 430.708 518.42 409.257 493.012C407.446 491.467 405.635 489.915 403.824 488.363C358.101 449.172 312.416 410.015 271.077 498.388C259.485 531.936 227.932 556 190.825 556C143.884 556 105.83 517.491 105.83 469.988C105.83 449.679 112.786 431.013 124.418 416.299L124.333 416.25C124.617 415.949 124.898 415.65 125.177 415.352C127.237 412.821 129.437 410.41 131.766 408.133C168.336 366.805 154.561 357.838 115.87 338.343C104.939 334.385 94.6572 329.047 85.2296 322.536C84.9763 322.397 84.7225 322.258 84.4683 322.119L84.5388 322.055Z" fill="#656565"/>
<path d="M350.234 195.715C350.234 246.217 390.69 287.156 440.595 287.156C490.499 287.156 530.955 246.217 530.955 195.715C530.955 145.213 490.499 104.273 440.595 104.273C390.69 104.273 350.234 145.213 350.234 195.715Z" fill="#656565"/>
<path d="M141.208 448C98.2078 448 66.5078 438.1 46.1078 418.3C25.7078 398.5 15.5078 371 15.5078 335.8C15.5078 300.8 25.7078 273.5 46.1078 253.9C66.7078 234.1 98.4078 224.2 141.208 224.2C184.008 224.2 215.608 234.1 236.008 253.9C256.408 273.5 266.608 300.8 266.608 335.8C266.608 371 256.408 398.5 236.008 418.3C215.608 438.1 184.008 448 141.208 448ZM141.508 395.5C159.908 395.5 173.308 389.9 181.708 378.7C190.108 367.3 194.308 353 194.308 335.8C194.308 318.8 190.108 304.7 181.708 293.5C173.308 282.1 159.908 276.4 141.508 276.4C122.508 276.4 108.708 282.1 100.108 293.5C91.7078 304.7 87.5078 318.8 87.5078 335.8C87.5078 352.8 91.7078 367 100.108 378.4C108.708 389.8 122.508 395.5 141.508 395.5ZM543.805 350.5V406.9H503.005V445H431.305C432.105 436.6 432.705 423.9 433.105 406.9H290.605V346.3C337.205 310.5 378.805 270.8 415.405 227.2H503.005V350.5H543.805ZM434.605 286.6C420.805 300.8 408.905 312.7 398.905 322.3C388.905 331.7 377.605 341.1 365.005 350.5H433.705L434.605 286.6ZM596.554 448C587.754 448 580.254 444.9 574.054 438.7C567.854 432.3 564.754 424.7 564.754 415.9C564.754 407.1 567.854 399.6 574.054 393.4C580.254 387.2 587.754 384.1 596.554 384.1C605.154 384.1 612.554 387.3 618.754 393.7C625.154 399.9 628.354 407.3 628.354 415.9C628.354 424.7 625.154 432.3 618.754 438.7C612.554 444.9 605.154 448 596.554 448Z" fill="#A5FF14"/>
</svg>
