<svg width="641" height="628" viewBox="0 0 641 628" fill="none" xmlns="http://www.w3.org/2000/svg">
<path d="M84.5388 322.055C49.1708 297.304 26 255.971 26 209.162C26 133.41 86.6836 72 161.541 72C222.374 72 273.847 112.556 290.998 168.407C332.003 267.39 350.004 303.28 493.588 303.417C495.403 303.335 497.228 303.293 499.063 303.293C500.533 303.293 501.996 303.32 503.453 303.373C505.509 303.353 507.589 303.326 509.694 303.293C510.078 303.483 510.457 303.676 510.832 303.871C569.888 309.708 616 358.998 616 418.939C616 482.809 563.646 534.586 499.063 534.586C462.976 534.586 430.708 518.42 409.257 493.012C407.446 491.467 405.635 489.915 403.824 488.363C358.101 449.172 312.416 410.015 271.077 498.388C259.485 531.936 227.932 556 190.825 556C143.884 556 105.83 517.491 105.83 469.988C105.83 449.679 112.786 431.013 124.418 416.299L124.333 416.25C124.617 415.949 124.898 415.65 125.177 415.352C127.237 412.821 129.437 410.41 131.766 408.133C168.336 366.805 154.561 357.838 115.87 338.343C104.939 334.385 94.6572 329.047 85.2296 322.536C84.9763 322.397 84.7225 322.258 84.4683 322.119L84.5388 322.055Z" fill="#656565"/>
<path d="M350.234 195.715C350.234 246.217 390.69 287.156 440.595 287.156C490.499 287.156 530.955 246.217 530.955 195.715C530.955 145.213 490.499 104.273 440.595 104.273C390.69 104.273 350.234 145.213 350.234 195.715Z" fill="#656565"/>
<path d="M147.214 448C104.214 448 72.5137 438.1 52.1137 418.3C31.7137 398.5 21.5137 371 21.5137 335.8C21.5137 300.8 31.7137 273.5 52.1137 253.9C72.7137 234.1 104.414 224.2 147.214 224.2C190.014 224.2 221.614 234.1 242.014 253.9C262.414 273.5 272.614 300.8 272.614 335.8C272.614 371 262.414 398.5 242.014 418.3C221.614 438.1 190.014 448 147.214 448ZM147.514 395.5C165.914 395.5 179.314 389.9 187.714 378.7C196.114 367.3 200.314 353 200.314 335.8C200.314 318.8 196.114 304.7 187.714 293.5C179.314 282.1 165.914 276.4 147.514 276.4C128.514 276.4 114.714 282.1 106.114 293.5C97.7137 304.7 93.5137 318.8 93.5137 335.8C93.5137 352.8 97.7137 367 106.114 378.4C114.714 389.8 128.514 395.5 147.514 395.5ZM434.011 291.7C456.811 291.7 475.911 294.9 491.311 301.3C506.911 307.5 518.511 316 526.111 326.8C533.911 337.4 537.811 349.3 537.811 362.5C537.811 392.5 527.311 414.3 506.311 427.9C485.511 441.3 457.611 448 422.611 448C393.211 448 367.311 443.1 344.911 433.3C322.711 423.3 306.611 406.6 296.611 383.2C307.611 381.6 319.611 379 332.611 375.4C345.811 371.8 357.711 368.1 368.311 364.3C372.511 372.9 378.411 379.2 386.011 383.2C393.611 387 403.811 388.9 416.611 388.9C430.211 388.9 441.411 386.7 450.211 382.3C459.211 377.9 463.711 371.8 463.711 364C463.711 356 459.811 349.3 452.011 343.9C444.211 338.5 432.311 335.8 416.311 335.8C405.911 335.8 396.411 337.7 387.811 341.5C379.211 345.1 373.011 350.3 369.211 357.1H299.911C304.711 336.5 308.911 314.3 312.511 290.5C316.311 266.7 318.611 245.6 319.411 227.2H530.011V285.4C507.811 284 486.811 283.2 467.011 283C447.411 282.6 419.911 282.4 384.511 282.4L381.511 299.2C396.711 294.2 414.211 291.7 434.011 291.7ZM590.548 448C581.748 448 574.248 444.9 568.048 438.7C561.848 432.3 558.748 424.7 558.748 415.9C558.748 407.1 561.848 399.6 568.048 393.4C574.248 387.2 581.748 384.1 590.548 384.1C599.148 384.1 606.548 387.3 612.748 393.7C619.148 399.9 622.348 407.3 622.348 415.9C622.348 424.7 619.148 432.3 612.748 438.7C606.548 444.9 599.148 448 590.548 448Z" fill="#A5FF14"/>
</svg>
