<svg width="641" height="628" viewBox="0 0 641 628" fill="none" xmlns="http://www.w3.org/2000/svg">
<path d="M84.5388 322.055C49.1708 297.304 26 255.971 26 209.162C26 133.41 86.6836 72 161.541 72C222.374 72 273.847 112.556 290.998 168.407C332.003 267.39 350.004 303.28 493.588 303.417C495.403 303.335 497.228 303.293 499.063 303.293C500.533 303.293 501.996 303.32 503.453 303.373C505.509 303.353 507.589 303.326 509.694 303.293C510.078 303.483 510.457 303.676 510.832 303.871C569.888 309.708 616 358.998 616 418.939C616 482.809 563.646 534.586 499.063 534.586C462.976 534.586 430.708 518.42 409.257 493.012C407.446 491.467 405.635 489.915 403.824 488.363C358.101 449.172 312.416 410.015 271.077 498.388C259.485 531.936 227.932 556 190.825 556C143.884 556 105.83 517.491 105.83 469.988C105.83 449.679 112.786 431.013 124.418 416.299L124.333 416.25C124.617 415.949 124.898 415.65 125.177 415.352C127.237 412.821 129.437 410.41 131.766 408.133C168.336 366.805 154.561 357.838 115.87 338.343C104.939 334.385 94.6572 329.047 85.2296 322.536C84.9763 322.397 84.7225 322.258 84.4683 322.119L84.5388 322.055Z" fill="#656565"/>
<path d="M350.234 195.715C350.234 246.217 390.69 287.156 440.595 287.156C490.499 287.156 530.955 246.217 530.955 195.715C530.955 145.213 490.499 104.273 440.595 104.273C390.69 104.273 350.234 145.213 350.234 195.715Z" fill="#656565"/>
<path d="M151.315 448C108.315 448 76.6152 438.1 56.2152 418.3C35.8152 398.5 25.6152 371 25.6152 335.8C25.6152 300.8 35.8152 273.5 56.2152 253.9C76.8152 234.1 108.515 224.2 151.315 224.2C194.115 224.2 225.715 234.1 246.115 253.9C266.515 273.5 276.715 300.8 276.715 335.8C276.715 371 266.515 398.5 246.115 418.3C225.715 438.1 194.115 448 151.315 448ZM151.615 395.5C170.015 395.5 183.415 389.9 191.815 378.7C200.215 367.3 204.415 353 204.415 335.8C204.415 318.8 200.215 304.7 191.815 293.5C183.415 282.1 170.015 276.4 151.615 276.4C132.615 276.4 118.815 282.1 110.215 293.5C101.815 304.7 97.6152 318.8 97.6152 335.8C97.6152 352.8 101.815 367 110.215 378.4C118.815 389.8 132.615 395.5 151.615 395.5ZM448.313 296.2C464.113 296.2 478.513 299.5 491.513 306.1C504.513 312.5 514.713 321.2 522.113 332.2C529.713 343.2 533.513 355 533.513 367.6C533.513 384 528.313 398.3 517.913 410.5C507.513 422.7 493.413 432 475.613 438.4C457.813 444.8 437.913 448 415.913 448C393.513 448 373.513 443.6 355.913 434.8C338.513 425.8 324.913 413.4 315.113 397.6C305.513 381.8 300.713 363.8 300.713 343.6C300.713 303.4 311.813 273.5 334.013 253.9C356.413 234.1 386.513 224.2 424.313 224.2C470.313 224.2 506.613 235.8 533.213 259C521.213 271.8 510.213 285.9 500.213 301.3C492.213 295.3 480.913 290.5 466.313 286.9C451.913 283.1 439.013 281.2 427.613 281.2C410.213 281.2 395.613 285.6 383.813 294.4C372.013 303 364.813 315.4 362.213 331.6C362.013 332.6 361.913 334 361.913 335.8C371.513 321.8 384.113 311.7 399.713 305.5C415.513 299.3 431.713 296.2 448.313 296.2ZM418.913 391C426.513 391 433.613 390 440.213 388C446.813 385.8 452.013 382.9 455.813 379.3C459.613 375.5 461.513 371.5 461.513 367.3C461.513 360.7 457.313 355.1 448.913 350.5C440.713 345.7 430.713 343.3 418.913 343.3C407.113 343.3 397.013 345.7 388.613 350.5C380.413 355.1 376.313 360.7 376.313 367.3C376.313 371.5 378.213 375.5 382.013 379.3C385.813 382.9 391.013 385.8 397.613 388C404.213 390 411.313 391 418.913 391ZM586.446 448C577.646 448 570.146 444.9 563.946 438.7C557.746 432.3 554.646 424.7 554.646 415.9C554.646 407.1 557.746 399.6 563.946 393.4C570.146 387.2 577.646 384.1 586.446 384.1C595.046 384.1 602.446 387.3 608.646 393.7C615.046 399.9 618.246 407.3 618.246 415.9C618.246 424.7 615.046 432.3 608.646 438.7C602.446 444.9 595.046 448 586.446 448Z" fill="#A5FF14"/>
</svg>
