<svg width="641" height="628" viewBox="0 0 641 628" fill="none" xmlns="http://www.w3.org/2000/svg">
<path d="M84.5388 322.055C49.1708 297.304 26 255.971 26 209.162C26 133.41 86.6836 72 161.541 72C222.374 72 273.847 112.556 290.998 168.407C332.003 267.39 350.004 303.28 493.588 303.417C495.403 303.335 497.228 303.293 499.063 303.293C500.533 303.293 501.996 303.32 503.453 303.373C505.509 303.353 507.589 303.326 509.694 303.293C510.078 303.483 510.457 303.676 510.832 303.871C569.888 309.708 616 358.998 616 418.939C616 482.809 563.646 534.586 499.063 534.586C462.976 534.586 430.708 518.42 409.257 493.012C407.446 491.467 405.635 489.915 403.824 488.363C358.101 449.172 312.416 410.015 271.077 498.388C259.485 531.936 227.932 556 190.825 556C143.884 556 105.83 517.491 105.83 469.988C105.83 449.679 112.786 431.013 124.418 416.299L124.333 416.25C124.617 415.949 124.898 415.65 125.177 415.352C127.237 412.821 129.437 410.41 131.766 408.133C168.336 366.805 154.561 357.838 115.87 338.343C104.939 334.385 94.6572 329.047 85.2296 322.536C84.9763 322.397 84.7225 322.258 84.4683 322.119L84.5388 322.055Z" fill="#656565"/>
<path d="M350.234 195.715C350.234 246.217 390.69 287.156 440.595 287.156C490.499 287.156 530.955 246.217 530.955 195.715C530.955 145.213 490.499 104.273 440.595 104.273C390.69 104.273 350.234 145.213 350.234 195.715Z" fill="#656565"/>
<path d="M170.651 448C127.651 448 95.9512 438.1 75.5512 418.3C55.1512 398.5 44.9512 371 44.9512 335.8C44.9512 300.8 55.1512 273.5 75.5512 253.9C96.1512 234.1 127.851 224.2 170.651 224.2C213.451 224.2 245.051 234.1 265.451 253.9C285.851 273.5 296.051 300.8 296.051 335.8C296.051 371 285.851 398.5 265.451 418.3C245.051 438.1 213.451 448 170.651 448ZM170.951 395.5C189.351 395.5 202.751 389.9 211.151 378.7C219.551 367.3 223.751 353 223.751 335.8C223.751 318.8 219.551 304.7 211.151 293.5C202.751 282.1 189.351 276.4 170.951 276.4C151.951 276.4 138.151 282.1 129.551 293.5C121.151 304.7 116.951 318.8 116.951 335.8C116.951 352.8 121.151 367 129.551 378.4C138.151 389.8 151.951 395.5 170.951 395.5ZM305.107 226.9H522.307V265.6C483.107 325 452.807 384.8 431.407 445H350.407C372.207 390.8 400.907 336.9 436.507 283.3C381.107 283.3 337.307 284.3 305.107 286.3V226.9ZM567.111 448C558.311 448 550.811 444.9 544.611 438.7C538.411 432.3 535.311 424.7 535.311 415.9C535.311 407.1 538.411 399.6 544.611 393.4C550.811 387.2 558.311 384.1 567.111 384.1C575.711 384.1 583.111 387.3 589.311 393.7C595.711 399.9 598.911 407.3 598.911 415.9C598.911 424.7 595.711 432.3 589.311 438.7C583.111 444.9 575.711 448 567.111 448Z" fill="#A5FF14"/>
</svg>
