<svg width="250" height="250" viewBox="0 0 250 250" fill="none" xmlns="http://www.w3.org/2000/svg">
<path d="M96 206H46.3077C42.513 206 38.8738 204.542 36.1906 201.948C33.5074 199.354 32 195.835 32 192.167V53.8333C32 50.1645 33.5074 46.6459 36.1906 44.0517C38.8738 41.4574 42.513 40 46.3077 40H203.692C207.487 40 211.127 41.4574 213.809 44.0517C216.492 46.6459 218 50.1645 218 53.8333V157.5" stroke="#A5FF14" stroke-width="9" stroke-linecap="round" stroke-linejoin="round"/>
<path d="M45 83L205 83" stroke="white" stroke-width="6" stroke-linecap="round" stroke-linejoin="round"/>
<path d="M216.572 197.001C217.273 198.295 217.639 199.744 217.639 201.215C217.639 202.688 217.273 204.135 216.572 205.43C215.915 206.721 214.912 207.804 213.676 208.56C212.442 209.317 211.02 209.717 209.572 209.715H125.715C124.267 209.717 122.847 209.317 121.611 208.56C120.376 207.804 119.374 206.721 118.715 205.43C118.015 204.135 117.648 202.688 117.648 201.215C117.648 199.744 118.015 198.295 118.715 197.001L160.858 121.002C161.437 119.582 162.426 118.368 163.698 117.513C164.97 116.658 166.468 116.201 168 116.201C169.533 116.201 171.032 116.658 172.305 117.513C173.576 118.368 174.565 119.582 175.143 121.002L216.572 197.001Z" stroke="#A5FF14" stroke-width="6" stroke-linecap="round" stroke-linejoin="round"/>
<path d="M167.715 166.858V152.572" stroke="white" stroke-width="9" stroke-linecap="round" stroke-linejoin="round"/>
<path d="M167.642 190.074C166.655 190.074 165.855 189.274 165.855 188.287C165.855 187.3 166.655 186.5 167.642 186.5" stroke="white" stroke-width="8" stroke-linecap="round" stroke-linejoin="round"/>
<path d="M167.641 190.074C168.628 190.074 169.428 189.274 169.428 188.287C169.428 187.3 168.628 186.5 167.641 186.5" stroke="white" stroke-width="8" stroke-linecap="round" stroke-linejoin="round"/>
</svg>
