<svg width="265" height="93" viewBox="0 0 265 93" fill="none" xmlns="http://www.w3.org/2000/svg">
<path d="M98.9404 46.9909C105.525 42.4375 109.838 34.8337 109.838 26.2224C109.838 12.2865 98.5411 0.989258 84.6052 0.989258C73.2801 0.989258 63.6976 8.45015 60.5047 18.7249C52.8708 36.9344 49.5197 43.5369 22.789 43.5622C22.4512 43.547 22.1114 43.5393 21.7698 43.5393C21.4962 43.5393 21.2237 43.5442 20.9526 43.554C20.5698 43.5503 20.1825 43.5454 19.7906 43.5393C19.7192 43.5743 19.6486 43.6098 19.5788 43.6457C8.58457 44.7194 0 53.7871 0 64.8143C0 76.5641 9.74666 86.0893 21.7698 86.0893C28.4879 86.0893 34.4953 83.1153 38.4886 78.441C38.8258 78.1569 39.1629 77.8714 39.5001 77.5858C48.0122 70.3761 56.5172 63.1725 64.2131 79.4301C66.3712 85.6018 72.2453 90.0287 79.1535 90.0287C87.8924 90.0287 94.9767 82.9445 94.9767 74.2055C94.9767 70.4693 93.6817 67.0355 91.5162 64.3284L91.532 64.3195C91.4792 64.2642 91.4268 64.2091 91.3749 64.1544C90.9914 63.6886 90.5818 63.2452 90.1484 62.8263C83.3402 55.2234 85.9046 53.5737 93.1077 49.9872C95.1426 49.2591 97.0567 48.2771 98.8118 47.0793C98.859 47.0538 98.9062 47.0283 98.9536 47.0026L98.9404 46.9909Z" fill="url(#paint0_linear_2002_2964)"/>
<path d="M49.4768 23.7486C49.4768 33.0392 41.9452 40.5707 32.6547 40.5707C23.3641 40.5707 15.8326 33.0392 15.8326 23.7486C15.8326 14.458 23.3641 6.92647 32.6547 6.92647C41.9452 6.92647 49.4768 14.458 49.4768 23.7486Z" fill="url(#paint1_linear_2002_2964)"/>
<path fill-rule="evenodd" clip-rule="evenodd" d="M97.9628 10.8848H28.6953V80.1522H97.9628V10.8848ZM92.0256 16.822H34.6325V74.215H92.0256V16.822Z" fill="white"/>
<mask id="mask0_2002_2964" style="mask-type:alpha" maskUnits="userSpaceOnUse" x="57" y="0" width="56" height="93">
<rect x="57.3906" width="55.414" height="92.0268" fill="#D9D9D9"/>
</mask>
<g mask="url(#mask0_2002_2964)">
<path d="M98.9404 46.9909C105.525 42.4375 109.838 34.8337 109.838 26.2224C109.838 12.2865 98.5411 0.989258 84.6052 0.989258C73.2801 0.989258 63.6976 8.45015 60.5047 18.7249C52.8708 36.9344 49.5197 43.5369 22.789 43.5622C22.4512 43.547 22.1114 43.5393 21.7698 43.5393C21.4962 43.5393 21.2237 43.5442 20.9526 43.554C20.5698 43.5503 20.1825 43.5454 19.7906 43.5393C19.7192 43.5743 19.6486 43.6098 19.5788 43.6457C8.58457 44.7194 0 53.7871 0 64.8143C0 76.5641 9.74666 86.0893 21.7698 86.0893C28.4879 86.0893 34.4953 83.1153 38.4886 78.441C38.8258 78.1569 39.1629 77.8714 39.5001 77.5858C48.0122 70.3761 56.5172 63.1725 64.2131 79.4301C66.3712 85.6018 72.2453 90.0287 79.1535 90.0287C87.8924 90.0287 94.9767 82.9445 94.9767 74.2055C94.9767 70.4693 93.6817 67.0355 91.5162 64.3284L91.532 64.3195C91.4792 64.2642 91.4268 64.2091 91.3749 64.1544C90.9914 63.6886 90.5818 63.2452 90.1484 62.8263C83.3402 55.2234 85.9046 53.5737 93.1077 49.9872C95.1426 49.2591 97.0567 48.2771 98.8118 47.0793C98.859 47.0538 98.9062 47.0283 98.9536 47.0026L98.9404 46.9909Z" fill="url(#paint2_linear_2002_2964)"/>
<path d="M49.4768 23.7486C49.4768 33.0392 41.9452 40.5707 32.6547 40.5707C23.3641 40.5707 15.8326 33.0392 15.8326 23.7486C15.8326 14.458 23.3641 6.92647 32.6547 6.92647C41.9452 6.92647 49.4768 14.458 49.4768 23.7486Z" fill="url(#paint3_linear_2002_2964)"/>
</g>
<path d="M134.22 32.6544C142.796 32.1794 149.446 31.6517 154.169 31.0711C153.721 32.4433 153.377 33.8946 153.14 35.4251C152.903 36.9556 152.784 38.3409 152.784 39.5811H124.483L124.443 38.7499C124.443 36.1639 125.196 33.921 126.7 32.0211C128.23 30.1212 130.354 28.3664 133.072 26.7568C133.864 26.2818 135.104 25.6749 136.793 24.936C138.983 23.9861 140.672 23.1549 141.859 22.4424C143.047 21.7035 143.64 20.9779 143.64 20.2654C143.64 19.3682 143.271 18.6558 142.532 18.128C141.793 17.6003 140.645 17.3364 139.089 17.3364C137.373 17.3364 136.067 17.7718 135.17 18.6426C134.299 19.5134 133.864 20.6216 133.864 21.9674C133.864 22.3896 133.903 22.825 133.983 23.2736C130.658 22.8514 127.425 22.5611 124.285 22.4028C124.285 20.1599 124.866 18.1412 126.027 16.3469C127.214 14.5261 128.982 13.088 131.331 12.0325C133.706 10.977 136.608 10.4492 140.039 10.4492C143.179 10.4492 145.791 10.8846 147.876 11.7554C149.987 12.5998 151.53 13.6817 152.507 15.0011C153.509 16.2941 154.011 17.6266 154.011 18.9988C154.011 20.5821 153.655 21.941 152.942 23.0757C152.256 24.2104 151.253 25.2263 149.934 26.1235C148.641 26.9942 146.899 27.9442 144.709 28.9733C144.393 29.1316 143.878 29.3164 143.165 29.5275C142.453 29.7122 142.004 29.8309 141.82 29.8837C139.946 30.4378 138.455 30.8996 137.347 31.269C136.239 31.6385 135.196 32.1003 134.22 32.6544Z" fill="white"/>
<path d="M190.741 27.113V34.5543H185.358V39.5811H175.898C176.003 38.4729 176.082 36.7972 176.135 34.5543H157.334V26.5589C163.482 21.8355 168.971 16.5975 173.8 10.845H185.358V27.113H190.741ZM176.333 18.6822C174.512 20.5557 172.942 22.1257 171.623 23.3923C170.304 24.6326 168.813 25.8728 167.15 27.113H176.214L176.333 18.6822Z" fill="white"/>
<path d="M156.94 80.1521H146.926V59.1739H138.059L138.02 61.4697C138.02 63.4751 137.967 65.2431 137.862 66.7736C137.782 68.2777 137.598 69.8213 137.307 71.4046C136.78 74.2808 135.434 76.5898 133.27 78.3313C131.133 80.0729 128.138 80.9437 124.285 80.9437V73.2253C125.314 73.0142 126.119 72.5524 126.7 71.84C127.307 71.1011 127.768 69.9269 128.085 68.3172C128.322 67.0242 128.441 64.082 128.441 59.4906L128.402 51.416L156.94 51.4556V80.1521Z" fill="white"/>
<path d="M177.731 80.5479C171.688 80.5479 167.242 79.2417 164.392 76.6293C161.542 73.9906 160.117 70.2963 160.117 65.5465C160.117 60.8495 161.529 57.1817 164.352 54.5429C167.202 51.9041 171.662 50.5848 177.731 50.5848C183.826 50.5848 188.286 51.9041 191.109 54.5429C193.959 57.1817 195.384 60.8495 195.384 65.5465C195.384 70.3227 193.972 74.017 191.149 76.6293C188.326 79.2417 183.853 80.5479 177.731 80.5479ZM177.731 72.4733C180.66 72.4733 182.771 71.9191 184.064 70.8109C185.357 69.6762 186.003 67.9214 186.003 65.5465C186.003 63.2244 185.357 61.496 184.064 60.3614C182.771 59.2267 180.66 58.6594 177.731 58.6594C174.828 58.6594 172.73 59.2267 171.437 60.3614C170.144 61.496 169.498 63.2244 169.498 65.5465C169.498 67.895 170.144 69.6366 171.437 70.7713C172.73 71.906 174.828 72.4733 177.731 72.4733Z" fill="white"/>
<path d="M208.197 80.1521H198.539C198.75 75.0065 198.856 70.2171 198.856 65.784C198.856 61.3245 198.75 56.5352 198.539 51.416H226.563C226.51 53.5798 226.483 55.229 226.483 56.3637C226.483 57.7622 226.497 58.8177 226.523 59.5302H208.197V80.1521Z" fill="white"/>
<path d="M247.346 80.5479C241.303 80.5479 236.857 79.2417 234.007 76.6293C231.157 73.9906 229.732 70.2963 229.732 65.5465C229.732 60.8495 231.144 57.1817 233.968 54.5429C236.818 51.9041 241.277 50.5848 247.346 50.5848C253.442 50.5848 257.901 51.9041 260.725 54.5429C263.575 57.1817 265 60.8495 265 65.5465C265 70.3227 263.588 74.017 260.764 76.6293C257.941 79.2417 253.468 80.5479 247.346 80.5479ZM247.346 72.4733C250.275 72.4733 252.386 71.9191 253.679 70.8109C254.972 69.6762 255.619 67.9214 255.619 65.5465C255.619 63.2244 254.972 61.496 253.679 60.3614C252.386 59.2267 250.275 58.6594 247.346 58.6594C244.444 58.6594 242.346 59.2267 241.053 60.3614C239.76 61.496 239.113 63.2244 239.113 65.5465C239.113 67.895 239.76 69.6366 241.053 70.7713C242.346 71.906 244.444 72.4733 247.346 72.4733Z" fill="white"/>
<defs>
<linearGradient id="paint0_linear_2002_2964" x1="0" y1="45.509" x2="109.838" y2="45.509" gradientUnits="userSpaceOnUse">
<stop stop-color="#79D000"/>
<stop offset="0.5" stop-color="#A5FF14"/>
<stop offset="1" stop-color="#CCFF79"/>
</linearGradient>
<linearGradient id="paint1_linear_2002_2964" x1="0" y1="45.509" x2="109.838" y2="45.509" gradientUnits="userSpaceOnUse">
<stop stop-color="#79D000"/>
<stop offset="0.5" stop-color="#A5FF14"/>
<stop offset="1" stop-color="#CCFF79"/>
</linearGradient>
<linearGradient id="paint2_linear_2002_2964" x1="0" y1="45.509" x2="109.838" y2="45.509" gradientUnits="userSpaceOnUse">
<stop stop-color="#79D000"/>
<stop offset="0.5" stop-color="#A5FF14"/>
<stop offset="1" stop-color="#CCFF79"/>
</linearGradient>
<linearGradient id="paint3_linear_2002_2964" x1="0" y1="45.509" x2="109.838" y2="45.509" gradientUnits="userSpaceOnUse">
<stop stop-color="#79D000"/>
<stop offset="0.5" stop-color="#A5FF14"/>
<stop offset="1" stop-color="#CCFF79"/>
</linearGradient>
</defs>
</svg>
