<svg width="871" height="704" viewBox="0 0 871 704" fill="none" xmlns="http://www.w3.org/2000/svg">
<path d="M89.8251 358.777L90.5422 359.272L90.5564 359.279L90.8143 359.455C104.316 368.642 119.038 376.173 134.688 381.757L135.022 381.876L135.34 382.034C149.558 389.092 161.905 395.396 171.388 401.808C180.819 408.185 188.273 415.217 191.674 424.113C195.186 433.296 193.932 443.215 188.703 454.255C183.534 465.168 174.218 477.77 160.603 492.93L160.458 493.091L160.302 493.242C157.028 496.396 153.935 499.735 151.039 503.242L150.905 503.405L150.831 503.482L149.972 504.553C133.622 524.931 123.851 550.767 123.851 578.892C123.851 644.657 177.325 698 243.326 698C295.489 698 339.846 664.674 356.139 618.215L356.244 617.915L356.381 617.628C371.068 586.692 386.395 565.739 402.502 552.862C418.789 539.839 435.706 535.221 452.879 536.729C469.805 538.215 486.52 545.608 502.775 555.707C519.054 565.821 535.33 578.947 551.353 592.369C554.787 595.245 558.22 598.144 561.642 601.035C562.977 602.161 564.98 603.85 566.651 605.258L568.78 607.053L569.422 607.594L569.597 607.741L569.642 607.779L569.653 607.789L569.656 607.791L569.657 607.792L565.792 612.381L569.657 607.792L570.03 608.106L570.348 608.477C579.684 619.372 590.461 629.061 602.398 637.262C629.519 655.897 662.616 666.852 698.369 666.852C790.545 666.852 865 594.081 865 504.639C865 420.696 799.428 351.445 715.161 343.239L714.023 343.128L713.005 342.607C712.902 342.553 712.798 342.5 712.694 342.447C710.073 342.486 707.477 342.518 704.907 342.542L704.771 342.544L704.634 342.539C702.555 342.464 700.467 342.426 698.369 342.426C695.75 342.426 693.145 342.485 690.556 342.601L690.419 342.607L690.281 342.607C584.106 342.507 522.704 329.457 480.319 297.103C438.101 264.876 415.781 214.153 385.677 142.554L385.566 142.289L385.48 142.014C360.923 63.2207 287.211 6 200.095 6C92.8826 6 6 92.6533 6 199.509C6 265.534 39.1631 323.845 89.8251 358.777ZM484.658 179.949C484.658 250.076 541.678 306.955 612.054 306.955C682.43 306.955 739.45 250.076 739.45 179.949C739.45 109.822 682.43 52.9432 612.054 52.9432C541.678 52.9432 484.658 109.822 484.658 179.949Z" stroke="url(#paint0_linear_263_6481)" stroke-width="12"/>
<defs>
<linearGradient id="paint0_linear_263_6481" x1="871" y1="352" x2="0" y2="352" gradientUnits="userSpaceOnUse">
<stop stop-color="#79D000"/>
<stop offset="0.5" stop-color="#A5FF14"/>
<stop offset="1" stop-color="#CCFF79"/>
</linearGradient>
</defs>
</svg>
