<svg width="1941" height="1573" viewBox="0 0 1941 1573" fill="none" xmlns="http://www.w3.org/2000/svg">
<path opacity="0.2" d="M1747 810.624L1744.9 812.069L1744.84 812.102L1744.74 812.175C1713.89 833.218 1680.26 850.47 1644.5 863.26L1644.36 863.31L1644.23 863.376C1612.43 879.203 1585.58 892.976 1565.15 906.827C1544.74 920.663 1530.39 934.804 1524.01 951.524C1517.59 968.363 1519.44 987.312 1530.3 1010.31C1541.14 1033.25 1561.06 1060.47 1591.19 1094.1L1591.25 1094.17L1591.31 1094.23C1598.9 1101.57 1606.08 1109.33 1612.79 1117.48L1612.85 1117.55L1612.91 1117.62C1613.1 1117.81 1613.29 1118.01 1613.47 1118.21L1613.43 1118.24L1615.27 1120.53C1653.2 1167.93 1675.87 1228.04 1675.87 1293.46C1675.87 1446.47 1551.8 1570.5 1398.75 1570.5C1277.77 1570.5 1174.89 1493 1137.1 1384.94L1137.05 1384.81L1137 1384.69C1102.91 1312.7 1067.8 1266.4 1031.77 1239.59C995.65 1212.7 958.727 1205.51 921.39 1211.53C884.173 1217.54 846.676 1236.64 809.189 1262.08C771.711 1287.51 734.03 1319.41 696.469 1351.22L696.407 1351.27C690.448 1356.32 684.493 1361.36 678.538 1366.38L678.381 1366.51L678.248 1366.66C608.142 1448.7 502.671 1500.9 384.703 1500.9C173.563 1500.9 2.5 1333.69 2.5 1127.55C2.5 934.09 153.165 774.92 346.229 756.07L346.704 756.024L347.129 755.805C348.173 755.269 349.227 754.737 350.292 754.211C357.017 754.315 363.665 754.399 370.238 754.462L370.295 754.463L370.352 754.46C375.114 754.289 379.898 754.202 384.703 754.202C390.702 754.202 396.67 754.337 402.601 754.604L402.659 754.607L402.716 754.607C638.981 754.384 772.615 725.133 864.028 655.169C955.371 585.259 1004.13 474.975 1071.51 314.29L1071.55 314.18L1071.59 314.066C1127.7 133.565 1296.09 2.5 1495.09 2.5C1739.98 2.5 1938.5 200.962 1938.5 445.777C1938.5 597.052 1862.7 730.629 1747 810.624ZM871.824 402.073C871.824 564.822 739.852 696.758 577.054 696.758C414.256 696.758 282.284 564.822 282.284 402.073C282.284 239.324 414.256 107.389 577.054 107.389C739.852 107.389 871.824 239.324 871.824 402.073Z" stroke="white" stroke-width="5"/>
</svg>
