<svg width="291" height="147" viewBox="0 0 291 147" fill="none" xmlns="http://www.w3.org/2000/svg">
<path d="M21.0502 46.4384C38.7523 45.458 52.4783 44.3686 62.2281 43.1703C61.3021 46.0027 60.5941 48.9984 60.1038 52.1576C59.6136 55.3167 59.3685 58.1763 59.3685 60.7363H0.951479L0.869777 59.0206C0.869777 53.6827 2.42212 49.0529 5.5268 45.1312C8.68595 41.2095 13.0706 37.5874 18.6808 34.2648C20.3149 33.2844 22.8749 32.0316 26.3608 30.5065C30.8817 28.5457 34.3677 26.8299 36.8187 25.3593C39.2698 23.8342 40.4953 22.3363 40.4953 20.8657C40.4953 19.0137 39.7328 17.5431 38.2077 16.4537C36.6826 15.3644 34.3132 14.8197 31.0996 14.8197C27.5591 14.8197 24.863 15.7184 23.0111 17.5159C21.2136 19.3133 20.3149 21.601 20.3149 24.3788C20.3149 25.2503 20.3966 26.1491 20.56 27.075C13.697 26.2035 7.02467 25.6044 0.542969 25.2776C0.542969 20.6478 1.74127 16.481 4.13786 12.7771C6.58893 9.01884 10.2383 6.05033 15.086 3.8716C19.9881 1.69288 25.9796 0.603516 33.0604 0.603516C39.5421 0.603516 44.9345 1.50224 49.2375 3.29969C53.5949 5.04267 56.7813 7.27586 58.7966 9.99926C60.8664 12.6682 61.9013 15.4188 61.9013 18.2512C61.9013 21.5193 61.166 24.3244 59.6953 26.6665C58.2792 29.0086 56.2094 31.1057 53.486 32.9576C50.817 34.755 47.2221 36.7159 42.7013 38.8401C42.0477 39.1669 40.9855 39.5482 39.5149 39.984C38.0443 40.3652 37.1183 40.6103 36.737 40.7193C32.8698 41.8631 29.7923 42.8163 27.5047 43.5788C25.217 44.3414 23.0655 45.2946 21.0502 46.4384Z" fill="white"/>
<path d="M137.718 35.0001V50.3601H126.606V60.7363H107.079C107.297 58.4486 107.461 54.9899 107.57 50.3601H68.7611V33.8563C81.4521 24.1065 92.7815 13.2946 102.749 1.42054H126.606V35.0001H137.718ZM107.978 17.5976C104.22 21.4648 100.979 24.7057 98.2555 27.3201C95.5321 29.8801 92.4547 32.4401 89.0232 35.0001H107.733L107.978 17.5976Z" fill="white"/>
<path d="M67.9473 144.481H47.2766V101.179H28.9753L28.8936 105.918C28.8936 110.057 28.7847 113.707 28.5668 116.866C28.4034 119.97 28.0221 123.157 27.423 126.425C26.3336 132.362 23.5557 137.128 19.0894 140.723C14.6774 144.318 8.49531 146.115 0.542969 146.115V130.183C2.66722 129.747 4.3285 128.794 5.5268 127.324C6.77957 125.798 7.73276 123.375 8.38637 120.052C8.87659 117.383 9.12169 111.31 9.12169 101.832L9.03999 85.1652L67.9473 85.2469V144.481Z" fill="white"/>
<path d="M110.863 145.298C98.39 145.298 89.2121 142.602 83.3296 137.21C77.447 131.763 74.5058 124.137 74.5058 114.333C74.5058 104.638 77.4198 97.0665 83.2479 91.6197C89.1304 86.1729 98.3355 83.4495 110.863 83.4495C123.445 83.4495 132.65 86.1729 138.479 91.6197C144.361 97.0665 147.302 104.638 147.302 114.333C147.302 124.192 144.388 131.817 138.56 137.21C132.732 142.602 123.5 145.298 110.863 145.298ZM110.863 128.631C116.909 128.631 121.267 127.487 123.936 125.199C126.604 122.857 127.939 119.235 127.939 114.333C127.939 109.54 126.604 105.972 123.936 103.63C121.267 101.288 116.909 100.117 110.863 100.117C104.872 100.117 100.542 101.288 97.8726 103.63C95.2036 105.972 93.8692 109.54 93.8692 114.333C93.8692 119.181 95.2036 122.775 97.8726 125.118C100.542 127.46 104.872 128.631 110.863 128.631Z" fill="white"/>
<path d="M173.75 144.481H153.814C154.25 133.86 154.468 123.974 154.468 114.823C154.468 105.618 154.25 95.7321 153.814 85.1652H211.659C211.55 89.6316 211.496 93.0359 211.496 95.378C211.496 98.2648 211.523 100.444 211.578 101.914H173.75V144.481Z" fill="white"/>
<path d="M254.56 145.298C242.087 145.298 232.909 142.602 227.026 137.21C221.144 131.763 218.203 124.137 218.203 114.333C218.203 104.638 221.117 97.0665 226.945 91.6197C232.827 86.1729 242.032 83.4495 254.56 83.4495C267.142 83.4495 276.347 86.1729 282.175 91.6197C288.058 97.0665 290.999 104.638 290.999 114.333C290.999 124.192 288.085 131.817 282.257 137.21C276.429 142.602 267.197 145.298 254.56 145.298ZM254.56 128.631C260.606 128.631 264.963 127.487 267.632 125.199C270.301 122.857 271.636 119.235 271.636 114.333C271.636 109.54 270.301 105.972 267.632 103.63C264.963 101.288 260.606 100.117 254.56 100.117C248.569 100.117 244.238 101.288 241.569 103.63C238.9 105.972 237.566 109.54 237.566 114.333C237.566 119.181 238.9 122.775 241.569 125.118C244.238 127.46 248.569 128.631 254.56 128.631Z" fill="white"/>
</svg>
