<svg width="441" height="574" viewBox="0 0 441 574" fill="none" xmlns="http://www.w3.org/2000/svg">
<g opacity="0.3">
<path d="M700.361 317.259C740.282 271.468 757.783 207.536 741.657 144.299C715.562 41.9611 611.283 -19.8037 508.744 6.34342C425.415 27.5921 368.878 100.36 364.625 181.803C342.554 329.847 330.261 384.62 133.626 434.959C131.112 435.481 128.598 436.062 126.084 436.703C124.071 437.216 122.075 437.763 120.099 438.344C117.275 439.035 114.417 439.726 111.521 440.416C111.062 440.807 110.609 441.2 110.163 441.595C31.2783 470.108 -14.9063 552.803 5.74279 633.78C27.7451 720.065 117.296 771.726 205.761 749.167C240.088 740.414 269.207 721.773 290.706 697.194C300.166 686.378 308.151 674.413 314.455 661.634C314.455 661.634 318.35 656.186 320.296 653.456C322.788 649.96 325.28 646.464 327.777 642.991C374.505 578.003 422.933 521.008 505.586 620.632C533.022 661.905 584.533 683.392 635.362 670.431C699.662 654.035 738.522 588.72 722.158 524.546C715.161 497.109 699.203 474.322 678.2 458.506L678.3 458.411C677.808 458.104 677.319 457.798 676.835 457.493C673.141 454.793 669.297 452.305 665.323 450.042C600.992 406.983 616.772 390.058 663.056 350.206C676.665 341.041 688.91 330.238 699.581 318.149C699.88 317.874 700.18 317.598 700.48 317.32L700.361 317.259Z" fill="url(#paint0_linear_543_10394)"/>
<path d="M292.89 239.385C310.287 307.61 268.974 377.049 200.615 394.48C132.256 411.912 62.7364 370.735 45.3392 302.51C27.942 234.285 69.2549 164.846 137.614 147.415C205.973 129.984 275.493 171.16 292.89 239.385Z" fill="url(#paint1_linear_543_10394)"/>
</g>
<defs>
<linearGradient id="paint0_linear_543_10394" x1="-30.4075" y1="492.013" x2="777.773" y2="285.929" gradientUnits="userSpaceOnUse">
<stop stop-color="#79D000"/>
<stop offset="0.5" stop-color="#A5FF14"/>
<stop offset="1" stop-color="#CCFF79"/>
</linearGradient>
<linearGradient id="paint1_linear_543_10394" x1="-30.4075" y1="492.013" x2="777.773" y2="285.929" gradientUnits="userSpaceOnUse">
<stop stop-color="#79D000"/>
<stop offset="0.5" stop-color="#A5FF14"/>
<stop offset="1" stop-color="#CCFF79"/>
</linearGradient>
</defs>
</svg>
