<svg width="2850" height="2306" viewBox="0 0 2850 2306" fill="none" xmlns="http://www.w3.org/2000/svg">
<path d="M2567.23 1191.38C2738.07 1073.45 2850 876.525 2850 653.504C2850 292.584 2556.87 0 2195.27 0C1901.41 0 1652.77 193.227 1569.93 459.329C1371.85 930.928 1284.9 1101.93 591.311 1102.58C582.546 1102.19 573.729 1101.99 564.865 1101.99C557.765 1101.99 550.697 1102.11 543.661 1102.37C533.73 1102.27 523.68 1102.15 513.511 1101.99C511.659 1102.89 509.828 1103.81 508.017 1104.74C222.746 1132.55 0 1367.39 0 1652.98C0 1957.29 252.899 2203.97 564.865 2203.97C685.915 2203.97 798.072 2166.83 890.011 2103.59C930.468 2075.77 967.01 2042.89 998.673 2005.89C998.673 2005.89 1016.17 1991.14 1024.92 1983.74C1036.12 1974.27 1047.32 1964.8 1058.52 1955.41C1268.12 1779.66 1476.59 1631.82 1666.15 2031.51C1722.15 2191.35 1874.57 2306 2053.81 2306C2280.56 2306 2464.38 2122.53 2464.38 1896.2C2464.38 1799.44 2430.78 1710.51 2374.59 1640.4L2375 1640.17C2373.63 1638.73 2372.27 1637.31 2370.92 1635.89C2360.97 1623.83 2350.35 1612.34 2339.1 1601.49C2162.45 1404.59 2228.99 1361.87 2415.88 1268.98C2468.68 1250.12 2518.35 1224.69 2563.89 1193.67C2565.11 1193.01 2566.34 1192.35 2567.57 1191.68L2567.23 1191.38Z" fill="#ECECEC"/>
<path d="M1283.78 589.435C1283.78 830.048 1088.36 1025.1 847.297 1025.1C606.232 1025.1 410.811 830.048 410.811 589.435C410.811 348.821 606.232 153.766 847.297 153.766C1088.36 153.766 1283.78 348.821 1283.78 589.435Z" fill="#ECECEC"/>
</svg>
