<svg width="866" height="719" viewBox="0 0 866 719" fill="none" xmlns="http://www.w3.org/2000/svg">
<g filter="url(#filter0_f_935_11205)">
<path d="M273.779 378.305C249.84 364.707 234.018 341.76 233.759 315.597C233.339 273.257 273.837 238.529 324.213 238.03C365.152 237.624 400.017 259.949 411.868 291.051C440.012 346.102 452.325 366.042 548.954 365.161C550.174 365.103 551.402 365.067 552.637 365.055C553.626 365.045 554.611 365.05 555.592 365.07C556.975 365.046 558.375 365.017 559.792 364.984C560.051 365.088 560.307 365.193 560.56 365.3C600.336 368.168 631.641 395.41 631.973 428.913C632.327 464.612 597.381 493.9 553.919 494.33C529.634 494.571 507.828 485.751 493.252 471.692C492.025 470.841 490.797 469.986 489.57 469.13C458.583 447.53 427.621 425.949 400.291 475.619C392.676 494.447 371.575 508.107 346.603 508.354C315.012 508.667 289.19 487.397 288.927 460.847C288.815 449.495 293.392 439.016 301.139 430.714L301.081 430.688C301.27 430.518 301.458 430.349 301.644 430.18C303.017 428.752 304.484 427.39 306.038 426.101C330.42 402.758 321.1 397.838 294.954 387.2C287.576 385.061 280.627 382.145 274.246 378.569C274.075 378.493 273.904 378.418 273.732 378.341L273.779 378.305Z" fill="url(#paint0_linear_935_11205)"/>
<path d="M451.884 305.919C452.164 334.146 479.616 356.758 513.2 356.426C546.785 356.093 573.783 332.941 573.504 304.714C573.224 276.488 545.771 253.875 512.187 254.208C478.603 254.54 451.604 277.692 451.884 305.919Z" fill="url(#paint1_linear_935_11205)"/>
</g>
<defs>
<filter id="filter0_f_935_11205" x="31.7539" y="36.0242" width="802.223" height="674.333" filterUnits="userSpaceOnUse" color-interpolation-filters="sRGB">
<feFlood flood-opacity="0" result="BackgroundImageFix"/>
<feBlend mode="normal" in="SourceGraphic" in2="BackgroundImageFix" result="shape"/>
<feGaussianBlur stdDeviation="101" result="effect1_foregroundBlur_935_11205"/>
</filter>
<linearGradient id="paint0_linear_935_11205" x1="631.392" y1="370.26" x2="234.34" y2="374.196" gradientUnits="userSpaceOnUse">
<stop stop-color="#79D000"/>
<stop offset="0.5" stop-color="#A5FF14"/>
<stop offset="1" stop-color="#CCFF79"/>
</linearGradient>
<linearGradient id="paint1_linear_935_11205" x1="631.392" y1="370.26" x2="234.34" y2="374.196" gradientUnits="userSpaceOnUse">
<stop stop-color="#79D000"/>
<stop offset="0.5" stop-color="#A5FF14"/>
<stop offset="1" stop-color="#CCFF79"/>
</linearGradient>
</defs>
</svg>
