<svg width="1174" height="891" viewBox="0 0 1174 891" fill="none" xmlns="http://www.w3.org/2000/svg">
<g clip-path="url(#clip0_935_11202)">
<g filter="url(#filter0_f_935_11202)">
<path d="M292.405 465.533C249.902 441.38 221.809 400.622 221.349 354.153C220.604 278.95 292.508 217.268 381.951 216.381C454.638 215.661 516.54 255.313 537.582 310.556C587.552 408.334 609.413 443.751 780.977 442.187C783.144 442.083 785.325 442.02 787.517 441.999C789.273 441.981 791.022 441.991 792.763 442.026C795.22 441.982 797.705 441.931 800.22 441.873C800.68 442.057 801.135 442.244 801.585 442.433C872.206 447.528 927.788 495.915 928.378 555.421C929.006 618.827 866.96 670.848 789.793 671.613C746.675 672.04 707.959 656.374 682.079 631.404C679.9 629.892 677.721 628.372 675.541 626.853C620.523 588.488 565.551 550.156 517.027 638.377C503.506 671.819 466.041 696.082 421.703 696.521C365.615 697.077 319.768 659.298 319.3 612.14C319.101 591.978 327.228 573.366 340.982 558.62L340.88 558.573C341.216 558.271 341.549 557.971 341.88 557.672C344.316 555.134 346.921 552.715 349.681 550.427C392.971 508.966 376.423 500.227 330.001 481.331C316.902 477.532 304.564 472.354 293.235 466.002C292.931 465.867 292.627 465.733 292.321 465.597L292.405 465.533Z" fill="url(#paint0_linear_935_11202)"/>
<path d="M608.63 336.964C609.127 387.099 657.868 427.262 717.497 426.671C777.126 426.08 825.062 384.959 824.565 334.824C824.068 284.689 775.327 244.525 715.698 245.116C656.069 245.707 608.133 286.829 608.63 336.964Z" fill="url(#paint1_linear_935_11202)"/>
</g>
</g>
<defs>
<filter id="filter0_f_935_11202" x="19.3438" y="14.3716" width="1111.04" height="884.156" filterUnits="userSpaceOnUse" color-interpolation-filters="sRGB">
<feFlood flood-opacity="0" result="BackgroundImageFix"/>
<feBlend mode="normal" in="SourceGraphic" in2="BackgroundImageFix" result="shape"/>
<feGaussianBlur stdDeviation="101" result="effect1_foregroundBlur_935_11202"/>
</filter>
<linearGradient id="paint0_linear_935_11202" x1="927.346" y1="451.243" x2="222.38" y2="458.229" gradientUnits="userSpaceOnUse">
<stop stop-color="#79D000"/>
<stop offset="0.5" stop-color="#A5FF14"/>
<stop offset="1" stop-color="#CCFF79"/>
</linearGradient>
<linearGradient id="paint1_linear_935_11202" x1="927.346" y1="451.243" x2="222.38" y2="458.229" gradientUnits="userSpaceOnUse">
<stop stop-color="#79D000"/>
<stop offset="0.5" stop-color="#A5FF14"/>
<stop offset="1" stop-color="#CCFF79"/>
</linearGradient>
<clipPath id="clip0_935_11202">
<rect width="1174" height="891" fill="white"/>
</clipPath>
</defs>
</svg>
