<svg width="784" height="980" viewBox="0 0 784 980" fill="none" xmlns="http://www.w3.org/2000/svg">
<g opacity="0.2">
<path d="M1289.87 163.324C1327.56 45.6117 1308.75 -87.9282 1227.68 -193.079C1096.47 -363.246 851.893 -394.624 681.392 -263.163C542.832 -156.33 495.835 25.1679 553.504 180.75C631.544 475.113 652.706 587.347 325.901 839.813C321.625 842.814 317.395 845.925 313.215 849.148C309.868 851.729 306.581 854.359 303.356 857.036C298.638 860.602 293.853 864.195 289.001 867.818C288.457 868.919 287.928 870.018 287.412 871.115C163.008 987.938 143.349 1179.64 247.167 1314.29C357.789 1457.77 566.714 1482.13 713.814 1368.71C770.892 1324.71 810.274 1266.42 830.638 1203.18C839.598 1175.35 844.876 1146.56 846.358 1117.61C846.358 1117.61 849.244 1104.29 850.681 1097.63C852.52 1089.09 854.36 1080.55 856.227 1072.05C891.166 912.986 935.724 767.49 1170.4 887.022C1254.91 942.025 1368.46 940.669 1452.98 875.502C1559.89 793.066 1579.87 639.733 1497.6 533.025C1462.42 487.402 1414.25 457.689 1362.27 445.062L1362.38 444.803C1361.21 444.626 1360.05 444.448 1358.9 444.27C1349.82 442.2 1340.64 440.649 1331.39 439.623C1176.52 411.009 1192.36 366.674 1246.72 254.933C1264.76 226.846 1278.94 196.798 1289.13 165.615C1289.47 164.86 1289.81 164.102 1290.14 163.343L1289.87 163.324Z" fill="url(#paint0_linear_333_10584)"/>
<path d="M465.878 346.121C553.346 459.566 532.108 622.578 418.44 710.219C304.772 797.859 141.719 776.941 54.2502 663.496C-33.2185 550.051 -11.98 387.039 101.688 299.399C215.356 211.758 378.409 232.677 465.878 346.121Z" fill="url(#paint1_linear_333_10584)"/>
</g>
<defs>
<linearGradient id="paint0_linear_333_10584" x1="65.4125" y1="1078.56" x2="1409.26" y2="42.4247" gradientUnits="userSpaceOnUse">
<stop stop-color="#79D000"/>
<stop offset="0.5" stop-color="#A5FF14"/>
<stop offset="1" stop-color="#CCFF79"/>
</linearGradient>
<linearGradient id="paint1_linear_333_10584" x1="65.4125" y1="1078.56" x2="1409.26" y2="42.4247" gradientUnits="userSpaceOnUse">
<stop stop-color="#79D000"/>
<stop offset="0.5" stop-color="#A5FF14"/>
<stop offset="1" stop-color="#CCFF79"/>
</linearGradient>
</defs>
</svg>
