<svg width="235" height="229" viewBox="0 0 235 229" fill="none" xmlns="http://www.w3.org/2000/svg">
<path d="M149.26 328.465C129.564 348.057 100.964 357.942 71.7128 352.443C24.3751 343.545 -6.74296 297.727 2.20872 250.106C9.48338 211.407 40.9821 183.426 77.9345 179.077C144.692 164.618 169.273 157.383 186.529 66.0569C186.694 64.893 186.886 63.7269 187.106 62.5595C187.282 61.6245 187.473 60.6968 187.681 59.7764C187.914 58.4662 188.146 57.1396 188.377 55.7964C188.542 55.5749 188.708 55.3564 188.875 55.1408C199.584 18.2576 235.9 -5.2869 273.357 1.7543C313.269 9.25696 339.364 48.6446 331.641 89.729C327.325 112.686 313.364 131.315 294.922 141.976C293.74 142.946 292.553 143.916 291.367 144.886C261.409 169.369 231.477 193.832 281.757 230.511C301.335 241.826 312.599 264.726 308.162 288.332C302.549 318.194 273.934 337.878 244.249 332.298C231.558 329.912 220.726 323.294 212.922 314.166L212.881 314.214C212.727 313.999 212.574 313.785 212.421 313.572C211.085 311.964 209.842 310.282 208.698 308.533C187.245 280.414 179.994 288.123 163.185 310.447C159.404 316.936 154.839 322.849 149.643 328.082C149.526 328.227 149.409 328.372 149.291 328.517L149.26 328.465Z" fill="#3D3D3D"/>
<path d="M102.083 144.601C133.641 150.533 164.062 129.606 170.03 97.8589C175.998 66.1119 155.252 35.5667 123.694 29.6343C92.1355 23.702 61.7145 44.629 55.7467 76.376C49.7789 108.123 70.5243 138.668 102.083 144.601Z" fill="#3D3D3D"/>
</svg>
