<svg width="375" height="1175" viewBox="0 0 375 1175" fill="none" xmlns="http://www.w3.org/2000/svg">
<g opacity="0.3">
<path d="M725.553 252.999C727.56 174.963 692.502 97.3101 624.717 47.8702C515.019 -32.1394 361.15 -7.96159 281.041 101.873C215.94 191.131 219.585 309.49 282.109 393.645C381.564 558.356 414.274 622.674 260.814 833.495C258.752 836.07 256.738 838.703 254.774 841.396C253.201 843.553 251.674 845.728 250.193 847.921C247.963 850.917 245.698 853.941 243.397 856.995C243.263 857.758 243.136 858.518 243.018 859.275C188.27 952.09 210.3 1071.81 297.101 1135.12C389.592 1202.58 520.598 1180.45 589.712 1085.69C616.529 1048.92 630.088 1006.62 631.236 964.672C631.741 946.215 629.843 927.826 625.615 910.008C625.615 910.008 625.006 901.423 624.697 897.127C624.3 891.624 623.903 886.121 623.53 880.637C616.547 778.013 617.798 681.915 781.275 712.942C842.262 731.366 910.876 710.486 950.587 656.04C1000.82 587.165 985.78 490.658 916.991 440.485C887.58 419.035 853.107 409.526 819.35 411.052L819.371 410.876C818.632 410.974 817.897 411.071 817.167 411.166C811.297 411.515 805.452 412.197 799.663 413.208C700.679 423.216 702.435 393.533 715.61 316.172C721.576 295.954 724.849 275.23 725.509 254.52C725.58 254.002 725.651 253.483 725.721 252.963L725.553 252.999Z" fill="url(#paint0_linear_417_20186)"/>
<path d="M258.261 509.402C331.393 562.742 347.383 665.341 293.977 738.564C240.571 811.787 137.992 827.906 64.8599 774.566C-8.27199 721.226 -24.2629 618.627 29.1432 545.404C82.5493 472.181 185.129 456.062 258.261 509.402Z" fill="url(#paint1_linear_417_20186)"/>
</g>
<defs>
<linearGradient id="paint0_linear_417_20186" x1="145.138" y1="1024.28" x2="776.534" y2="158.6" gradientUnits="userSpaceOnUse">
<stop stop-color="#79D000"/>
<stop offset="0.5" stop-color="#A5FF14"/>
<stop offset="1" stop-color="#CCFF79"/>
</linearGradient>
<linearGradient id="paint1_linear_417_20186" x1="145.138" y1="1024.28" x2="776.534" y2="158.6" gradientUnits="userSpaceOnUse">
<stop stop-color="#79D000"/>
<stop offset="0.5" stop-color="#A5FF14"/>
<stop offset="1" stop-color="#CCFF79"/>
</linearGradient>
</defs>
</svg>
