<svg width="68" height="82" viewBox="0 0 68 82" fill="none" xmlns="http://www.w3.org/2000/svg">
<g clip-path="url(#clip0_379_15108)">
<path d="M67.75 33.5C67.75 59.75 34 82.25 34 82.25C34 82.25 0.25 59.75 0.25 33.5C0.25 24.5489 3.80579 15.9645 10.1351 9.63515C16.4645 3.30579 25.0489 -0.25 34 -0.25C42.9511 -0.25 51.5355 3.30579 57.8649 9.63515C64.1942 15.9645 67.75 24.5489 67.75 33.5Z" fill="#393939"/>
<path d="M51.4198 35.5658C53.9038 33.8271 55.5312 30.9236 55.5312 27.6353C55.5312 22.3139 51.2692 18 46.0118 18C41.7393 18 38.1242 20.849 36.9196 24.7724C34.0397 31.7257 32.7755 34.2469 22.6911 34.2566C22.5637 34.2508 22.4355 34.2478 22.3066 34.2478C22.2034 34.2478 22.1006 34.2497 21.9983 34.2534C21.8539 34.252 21.7078 34.2502 21.5599 34.2478C21.533 34.2612 21.5064 34.2748 21.48 34.2885C17.3323 34.6985 14.0938 38.161 14.0938 42.3717C14.0938 46.8585 17.7708 50.4957 22.3066 50.4957C24.841 50.4957 27.1074 49.36 28.6139 47.5752C28.7411 47.4667 28.8683 47.3576 28.9955 47.2486C32.2067 44.4956 35.4153 41.7448 38.3187 47.9529C39.1328 50.3095 41.3489 52 43.955 52C47.2519 52 49.9245 49.2948 49.9245 45.9578C49.9245 44.5311 49.436 43.2199 48.619 42.1862L48.625 42.1828C48.605 42.1617 48.5853 42.1407 48.5657 42.1198C48.421 41.9419 48.2665 41.7726 48.103 41.6126C45.5345 38.7094 46.502 38.0795 49.2194 36.71C49.9871 36.432 50.7092 36.057 51.3713 35.5996C51.3891 35.5899 51.4069 35.5801 51.4248 35.5703L51.4198 35.5658Z" fill="url(#paint0_linear_379_15108)"/>
<path d="M32.7593 26.6907C32.7593 30.2383 29.9179 33.1143 26.413 33.1143C22.908 33.1143 20.0667 30.2383 20.0667 26.6907C20.0667 23.1431 22.908 20.2671 26.413 20.2671C29.9179 20.2671 32.7593 23.1431 32.7593 26.6907Z" fill="url(#paint1_linear_379_15108)"/>
</g>
<defs>
<linearGradient id="paint0_linear_379_15108" x1="14.0938" y1="35" x2="55.5312" y2="35" gradientUnits="userSpaceOnUse">
<stop stop-color="#79D000"/>
<stop offset="0.5" stop-color="#A5FF14"/>
<stop offset="1" stop-color="#CCFF79"/>
</linearGradient>
<linearGradient id="paint1_linear_379_15108" x1="14.0938" y1="35" x2="55.5312" y2="35" gradientUnits="userSpaceOnUse">
<stop stop-color="#79D000"/>
<stop offset="0.5" stop-color="#A5FF14"/>
<stop offset="1" stop-color="#CCFF79"/>
</linearGradient>
<clipPath id="clip0_379_15108">
<rect width="68" height="82" fill="white"/>
</clipPath>
</defs>
</svg>
