<svg width="250" height="250" viewBox="0 0 250 250" fill="none" xmlns="http://www.w3.org/2000/svg">
<path d="M71.1033 185.382C73.6807 185.382 75.7696 187.471 75.7696 190.049C75.7696 192.626 73.6807 194.715 71.1033 194.715H40.0003C35.0447 194.715 30.5422 192.691 27.2834 189.432C24.0247 186.173 22 181.67 22 176.715V114.046C22 109.091 24.0247 104.588 27.2834 101.329C30.5422 98.0706 35.0447 96.0459 40.0003 96.0459H210.176C215.132 96.0459 219.634 98.0706 222.893 101.329C226.152 104.588 228.176 109.091 228.176 114.046V176.715C228.176 181.67 226.152 186.173 222.893 189.432C219.634 192.691 215.132 194.715 210.176 194.715H179.073C176.496 194.715 174.407 192.626 174.407 190.049C174.407 187.471 176.496 185.382 179.073 185.382H210.176C212.554 185.382 214.72 184.405 216.295 182.834C217.867 181.262 218.844 179.093 218.844 176.715V114.046C218.844 111.668 217.867 109.502 216.295 107.927C214.724 106.356 212.554 105.379 210.176 105.379H40.0003C37.6222 105.379 35.4561 106.356 33.8813 107.927C32.3098 109.499 31.3328 111.668 31.3328 114.046V176.715C31.3328 179.093 32.3098 181.259 33.8813 182.834C35.4529 184.405 37.6222 185.382 40.0003 185.382H71.1033Z" fill="#A5FF14"/>
<path d="M84.7474 88.8378C84.7474 90.6793 83.2562 92.1705 81.4147 92.1705C79.5732 92.1705 78.082 90.6793 78.082 88.8378V46.2585C78.082 41.7849 79.9107 37.7163 82.8545 34.7725C85.7983 31.8286 89.8669 30 94.3405 30H155.09C159.564 30 163.633 31.8286 166.576 34.7725C169.52 37.7163 171.349 41.7849 171.349 46.2585V88.8378C171.349 90.6793 169.858 92.1705 168.016 92.1705C166.175 92.1705 164.684 90.6793 164.684 88.8378V46.2585C164.684 43.6232 163.604 41.2257 161.862 39.4871C160.123 37.7484 157.723 36.6654 155.09 36.6654H94.3405C91.7052 36.6654 89.3077 37.7452 87.5691 39.4871C85.8304 41.2257 84.7474 43.6264 84.7474 46.2585V88.8378Z" fill="#F5F5F5"/>
<path d="M164.684 169.05C164.684 167.209 166.175 165.718 168.016 165.718C169.858 165.718 171.349 167.209 171.349 169.05V204.286C171.349 208.76 169.52 212.828 166.576 215.772C163.633 218.716 159.564 220.545 155.09 220.545H94.3405C89.8669 220.545 85.7983 218.716 82.8545 215.772C79.9107 212.828 78.082 208.76 78.082 204.286V169.05C78.082 167.209 79.5732 165.718 81.4147 165.718C83.2562 165.718 84.7474 167.209 84.7474 169.05V204.286C84.7474 206.922 85.8272 209.319 87.5691 211.058C89.3077 212.796 91.7084 213.879 94.3405 213.879H155.09C157.726 213.879 160.123 212.8 161.862 211.058C163.601 209.319 164.684 206.918 164.684 204.286V169.05Z" fill="#F5F5F5"/>
<path d="M65.2774 72.6728C65.2646 70.8409 66.7397 69.3401 68.5715 69.3272C70.4034 69.3144 71.9042 70.7895 71.9171 72.6213L72.081 88.8123C72.0938 90.6442 70.6187 92.145 68.7869 92.1579C66.955 92.1707 65.4542 90.6956 65.4413 88.8638L65.2774 72.6728Z" fill="#A5FF14"/>
<path d="M178.551 72.6728C178.538 70.8409 180.013 69.3401 181.845 69.3272C183.677 69.3144 185.178 70.7895 185.191 72.6213L185.358 88.8123C185.37 90.6442 183.895 92.145 182.064 92.1579C180.232 92.1707 178.731 90.6956 178.718 88.8638L178.551 72.6728Z" fill="#A5FF14"/>
<path d="M185.57 128.024C183.738 128.046 182.23 126.574 182.211 124.742C182.189 122.91 183.661 121.403 185.492 121.384L198.659 121.22C200.491 121.197 201.998 122.669 202.018 124.501C202.04 126.333 200.568 127.84 198.736 127.86L185.57 128.024Z" fill="#F5F5F5"/>
<path d="M71.1015 165.718C72.943 165.718 74.4342 167.209 74.4342 169.05C74.4342 170.892 72.943 172.383 71.1015 172.383H68.9547C66.2905 172.383 63.8705 171.297 62.119 169.545C60.3675 167.794 59.2812 165.374 59.2812 162.71C59.2812 160.045 60.3675 157.625 62.119 155.874C63.8705 154.122 66.2905 153.036 68.9547 153.036H181.215C183.879 153.036 186.299 154.122 188.051 155.874C189.802 157.625 190.889 160.045 190.889 162.71C190.889 165.374 189.802 167.794 188.051 169.545C186.299 171.297 183.879 172.383 181.215 172.383H179.068C177.227 172.383 175.736 170.892 175.736 169.05C175.736 167.209 177.227 165.718 179.068 165.718H181.215C182.038 165.718 182.79 165.377 183.336 164.831C183.882 164.284 184.223 163.532 184.223 162.71C184.223 161.887 183.882 161.135 183.336 160.589C182.79 160.042 182.038 159.701 181.215 159.701H68.9547C68.132 159.701 67.38 160.042 66.8336 160.589C66.2873 161.135 65.9466 161.887 65.9466 162.71C65.9466 163.532 66.2873 164.284 66.8336 164.831C67.38 165.377 68.132 165.718 68.9547 165.718H71.1015Z" fill="#A5FF14"/>
</svg>
