<svg width="250" height="250" viewBox="0 0 250 250" fill="none" xmlns="http://www.w3.org/2000/svg">
<path d="M128.264 23.2674L147.526 40.9759L173.038 35.2786C175.505 34.7265 177.955 36.1664 178.691 38.5289L178.699 38.5264L186.527 63.4914L211.47 71.3149C213.985 72.0957 215.4 74.7367 214.664 77.2434L209.028 102.494L226.74 121.767C228.435 123.612 228.405 126.42 226.74 128.23L209.028 147.503L214.734 173.067C215.278 175.517 213.832 177.944 211.468 178.673L211.47 178.683L186.527 186.506L178.699 211.471C177.922 213.955 175.303 215.363 172.801 214.667L147.528 209.024L128.264 226.733C126.403 228.436 123.562 228.409 121.736 226.733L102.474 209.024L76.9619 214.721C74.4948 215.273 72.0452 213.834 71.3085 211.471L71.3011 211.474L63.4728 186.509L38.5298 178.685C36.0153 177.904 34.5995 175.263 35.3361 172.757L40.9719 147.506L23.2604 128.233C21.5649 126.388 21.5949 123.58 23.2604 121.77L40.9719 102.497L35.2662 76.9326C34.7218 74.4831 36.1676 72.056 38.5323 71.3273L38.5298 71.3174L63.4728 63.4939L71.3011 38.5289C72.0776 36.0446 74.697 34.637 77.1991 35.3333L102.472 40.9759L121.736 23.2674C123.597 21.5639 126.438 21.5913 128.264 23.2674ZM142.849 49.7369L125.002 33.3315L107.156 49.7369L107.154 49.7319C106.03 50.759 104.437 51.2389 102.839 50.8808L79.1917 45.5989C76.7746 53.3079 74.3 61.0195 71.9328 68.7435C71.4758 70.1983 70.3347 71.4119 68.7641 71.8993L45.6264 79.1583L50.9177 102.855C51.2398 104.325 50.8652 105.924 49.7665 107.12L33.3335 125.002L49.6367 142.743C50.7479 143.86 51.2847 145.501 50.9177 147.15L45.6264 170.847L68.7641 178.106C70.2248 178.561 71.4434 179.697 71.9328 181.261L79.1917 204.406L102.621 199.174C104.167 198.754 105.89 199.109 107.159 200.271L125.005 216.676L142.851 200.271L142.854 200.276C143.978 199.248 145.571 198.769 147.169 199.127L170.816 204.409C173.233 196.7 175.707 188.988 178.075 181.264C178.532 179.809 179.673 178.596 181.243 178.108L204.381 170.849L199.09 147.152C198.768 145.683 199.142 144.084 200.241 142.888L216.674 125.005L200.371 107.264C199.26 106.148 198.723 104.506 199.09 102.857L204.381 79.1608L181.243 71.9018C179.783 71.4467 178.564 70.3102 178.075 68.746L170.816 45.6013L147.386 50.8336C145.84 51.2538 144.117 50.8982 142.849 49.7369Z" fill="#A5FF14"/>
<path d="M145.037 85.9823C146.61 83.8461 149.624 83.3835 151.771 84.9502C153.916 86.5169 154.38 89.5185 152.807 91.6571L100.719 162.352C99.1459 164.488 96.1319 164.951 93.9845 163.384C91.8395 161.817 91.3751 158.816 92.9482 156.677L145.037 85.9823Z" fill="#F5F5F5"/>
<path d="M104.55 85.8169C108.418 85.8169 111.921 87.3787 114.453 89.9028C116.988 92.4269 118.556 95.9158 118.556 99.7654C118.556 103.617 116.988 107.104 114.453 109.631C111.919 112.155 108.415 113.716 104.547 113.716C100.68 113.716 97.1787 112.155 94.6417 109.631C92.1072 107.106 90.5391 103.617 90.5391 99.7654C90.5391 95.9134 92.1072 92.4269 94.6417 89.9003C97.1762 87.3762 100.68 85.8145 104.547 85.8145L104.55 85.8169ZM109.577 94.762C108.291 93.4813 106.513 92.688 104.55 92.688C102.587 92.688 100.809 93.4813 99.5234 94.762C98.2374 96.0427 97.4409 97.8133 97.4409 99.7679C97.4409 101.723 98.2374 103.493 99.5234 104.774C100.809 106.055 102.587 106.848 104.55 106.848C106.513 106.848 108.291 106.055 109.577 104.774C110.863 103.493 111.659 101.723 111.659 99.7679C111.659 97.8133 110.863 96.0427 109.577 94.762Z" fill="#F5F5F5"/>
<path d="M145.455 135.049C149.323 135.049 152.826 136.611 155.358 139.135C157.893 141.659 159.461 145.148 159.461 148.997C159.461 152.849 157.893 156.338 155.358 158.86C152.824 161.384 149.321 162.946 145.455 162.946C141.587 162.946 138.086 161.384 135.552 158.86C133.017 156.336 131.449 152.847 131.449 148.997C131.449 145.145 133.017 141.656 135.552 139.135C138.086 136.611 141.59 135.049 145.455 135.049ZM150.482 143.994C149.196 142.713 147.418 141.92 145.455 141.92C143.492 141.92 141.715 142.713 140.429 143.994C139.143 145.275 138.346 147.045 138.346 149C138.346 150.954 139.143 152.725 140.429 154.006C141.715 155.286 143.492 156.08 145.455 156.08C147.418 156.08 149.196 155.286 150.482 154.006C151.768 152.725 152.564 150.954 152.564 149C152.564 147.045 151.768 145.275 150.482 143.994Z" fill="#F5F5F5"/>
</svg>
