<svg width="250" height="250" viewBox="0 0 250 250" fill="none" xmlns="http://www.w3.org/2000/svg">
<path d="M131.715 123.571C129.596 124.491 127.311 124.966 125.001 124.966C122.691 124.966 120.406 124.491 118.287 123.571L36.8582 85.8564C35.536 85.1895 34.4248 84.1687 33.6484 82.9075C32.872 81.6464 32.4609 80.1945 32.4609 78.7135C32.4609 77.2325 32.872 75.7807 33.6484 74.5195C34.4248 73.2585 35.536 72.2377 36.8582 71.5707L118.287 33.5707C120.406 32.6506 122.691 32.1758 125.001 32.1758C127.311 32.1758 129.596 32.6506 131.715 33.5707L213.144 71.285C214.466 71.952 215.578 72.9728 216.354 74.2338C217.131 75.495 217.541 76.9468 217.541 78.4278C217.541 79.9088 217.131 81.3607 216.354 82.6218C215.578 83.883 214.466 84.9038 213.144 85.5707L131.715 123.571Z" stroke="#A5FF14" stroke-width="9" stroke-linecap="round" stroke-linejoin="round"/>
<path d="M217.855 130L130.712 170.143C128.851 170.992 126.829 171.432 124.783 171.432C122.738 171.432 120.716 170.992 118.855 170.143L32.1406 130" stroke="#F5F5F5" stroke-width="6" stroke-linecap="round" stroke-linejoin="round"/>
<path d="M217.714 177L130.571 217.143C128.71 217.991 126.688 218.431 124.643 218.431C122.597 218.431 120.575 217.991 118.714 217.143L32 177" stroke="#A5FF14" stroke-width="9" stroke-linecap="round" stroke-linejoin="round"/>
</svg>
