<svg width="250" height="250" viewBox="0 0 250 250" fill="none" xmlns="http://www.w3.org/2000/svg">
<path d="M199.49 142.222L207.552 109.473C209.855 99.3311 207.36 79.5429 205.824 70.9165C201.717 62.3075 190.046 73.6631 191.428 93.1005C192.81 112.538 183.942 133.947 179.336 142.222C168.97 159.652 158.052 150.163 152.847 143.278C147.641 136.394 145.326 131.072 141.151 123.678C132.699 112.696 125.79 122.151 128.661 129.546C134.611 144.864 148.192 174.065 156.301 183.95C161.196 189.916 165.169 199.56 167.144 206.873C168.074 210.315 171.082 213 174.647 213C187.146 213 203.748 213 212.545 213C216.036 213 218.979 210.442 219.486 206.988C221.506 193.245 226.626 159.89 230.25 149.088C234.857 135.355 229.674 115.284 222.764 109.473M208.376 83.064C219.893 84.1204 224.5 106.304 222.196 115.284C220.354 122.467 216.822 137.644 215.286 144.334" stroke="#A5FF14" stroke-width="6" stroke-linecap="round"/>
<path d="M179.5 72.9751C173.155 67.769 162.669 64.2232 150.193 72.1828C149.607 72.5566 148.807 72.232 148.618 71.5633C132.614 15.1193 50.5711 33.473 54.2787 85.8833C54.3075 86.2905 54.0792 86.6977 53.7162 86.8843C-11.4221 120.377 19.7677 210.451 72.4776 210.451H147" stroke="#A5FF14" stroke-width="9" stroke-linecap="round"/>
<path d="M159.5 102.499C156.197 96.3629 145.321 92.4559 138.224 98.7645C137.648 99.2768 136.677 99.056 136.406 98.3343C122.285 60.823 76.9272 78.1045 78.4517 105.319C78.4745 105.726 78.2491 106.125 77.8879 106.314C44.1623 123.98 57.5253 169 85.0183 169H123.999" stroke="white" stroke-width="5" stroke-linecap="round"/>
</svg>
