<svg width="250" height="250" viewBox="0 0 250 250" fill="none" xmlns="http://www.w3.org/2000/svg">
<path d="M203.964 124.49C203.964 121.913 206.053 119.823 208.631 119.823C211.208 119.823 213.297 121.913 213.297 124.49C213.297 148.969 203.375 171.132 187.332 187.174C171.29 203.216 149.128 213.139 124.649 213.139C100.17 213.139 78.007 203.216 61.9651 187.174C45.9228 171.131 36 148.968 36 124.49C36 100.011 45.9228 77.8483 61.9647 61.8064C78.007 45.7645 100.17 35.8417 124.649 35.8417C137.748 35.8417 150.211 38.7024 161.445 43.8354C168.888 47.2365 175.778 51.6364 181.943 56.8625L179.249 34.2098C178.947 31.6526 180.776 29.3346 183.333 29.0326C185.89 28.7306 188.208 30.5587 188.51 33.1159L192.773 68.9727L192.764 68.9739C192.802 69.2999 192.806 69.6355 192.773 69.9754C192.688 70.832 192.377 71.6108 191.904 72.259L191.763 72.4426C191.463 72.8124 191.111 73.1326 190.718 73.3947C190.408 73.5964 190.132 73.7346 189.79 73.8715C189.14 74.1179 188.425 74.2225 187.687 74.1498L154.061 70.7696C151.504 70.5177 149.635 68.2408 149.887 65.6836C150.139 63.1264 152.415 61.2573 154.973 61.5091L175.465 63.5694C170.064 59.0577 164.055 55.2516 157.58 52.2933C147.577 47.7225 136.425 45.1748 124.649 45.1748C102.746 45.1748 82.9165 54.0527 68.5638 68.405C54.2114 82.7578 45.3335 102.587 45.3335 124.49C45.3335 146.392 54.2114 166.221 68.5642 180.574C82.9169 194.927 102.746 203.805 124.649 203.805C146.551 203.805 166.381 194.927 180.733 180.574C195.086 166.221 203.964 146.392 203.964 124.49L203.964 124.49Z" fill="#A5FF14"/>
<path d="M94.1154 76.7394C93.2095 75.1434 93.7692 73.114 95.3652 72.208C96.9612 71.3021 98.9906 71.8618 99.8965 73.4578L125.117 117.999C125.374 117.977 125.634 117.965 125.896 117.965C130.721 117.965 134.632 121.877 134.632 126.701C134.632 131.526 130.721 135.437 125.896 135.437C121.071 135.437 117.16 131.526 117.16 126.701C117.16 124.555 117.934 122.591 119.217 121.071L94.115 76.739L94.1154 76.7394ZM110.261 137.229C111.649 136.029 113.747 136.18 114.948 137.568C116.149 138.956 115.997 141.054 114.609 142.255L91.0833 162.584C89.6954 163.785 87.5969 163.633 86.3961 162.245C85.1952 160.858 85.3468 158.759 86.7348 157.558L110.261 137.229Z" fill="#F5F5F5"/>
<path d="M68.8788 201.708C70.3098 200.558 72.4027 200.785 73.5534 202.216C74.7037 203.647 74.4764 205.74 73.0454 206.891L55.916 220.737C54.485 221.887 52.392 221.66 51.2413 220.229C50.091 218.798 50.3184 216.705 51.7494 215.554L68.8788 201.708Z" fill="#F5F5F5"/>
<path d="M176.249 206.891C174.818 205.741 174.591 203.647 175.741 202.216C176.892 200.785 178.985 200.558 180.416 201.708L197.545 215.554C198.976 216.705 199.204 218.798 198.053 220.229C196.903 221.66 194.81 221.887 193.379 220.737L176.249 206.891Z" fill="#F5F5F5"/>
</svg>
