<svg width="628" height="628" viewBox="0 0 628 628" fill="none" xmlns="http://www.w3.org/2000/svg">
<path d="M77.5388 322.055C42.1708 297.304 19 255.971 19 209.162C19 133.41 79.6836 72 154.541 72C215.374 72 266.847 112.556 283.998 168.407C325.003 267.39 343.004 303.28 486.588 303.417C488.403 303.335 490.228 303.293 492.063 303.293C493.533 303.293 494.996 303.32 496.453 303.373C498.509 303.353 500.589 303.326 502.694 303.293C503.078 303.483 503.457 303.676 503.832 303.871C562.888 309.708 609 358.998 609 418.939C609 482.809 556.646 534.586 492.063 534.586C455.976 534.586 423.708 518.42 402.257 493.012C400.446 491.467 398.635 489.915 396.824 488.363C351.101 449.172 305.416 410.015 264.077 498.388C252.485 531.936 220.932 556 183.825 556C136.884 556 98.8301 517.491 98.8301 469.988C98.8301 449.679 105.786 431.013 117.418 416.299L117.333 416.25C117.617 415.949 117.898 415.65 118.177 415.352C120.237 412.821 122.437 410.41 124.766 408.133C161.336 366.805 147.561 357.838 108.87 338.343C97.939 334.385 87.6572 329.047 78.2296 322.536C77.9763 322.397 77.7225 322.258 77.4683 322.119L77.5388 322.055Z" fill="#656565"/>
<path d="M343.234 195.715C343.234 246.217 383.69 287.156 433.595 287.156C483.499 287.156 523.955 246.217 523.955 195.715C523.955 145.213 483.499 104.273 433.595 104.273C383.69 104.273 343.234 145.213 343.234 195.715Z" fill="#656565"/>
<path d="M185.098 448C142.098 448 110.398 438.1 89.9984 418.3C69.5984 398.5 59.3984 371 59.3984 335.8C59.3984 300.8 69.5984 273.5 89.9984 253.9C110.598 234.1 142.298 224.2 185.098 224.2C227.898 224.2 259.498 234.1 279.898 253.9C300.298 273.5 310.498 300.8 310.498 335.8C310.498 371 300.298 398.5 279.898 418.3C259.498 438.1 227.898 448 185.098 448ZM185.398 395.5C203.798 395.5 217.198 389.9 225.598 378.7C233.998 367.3 238.198 353 238.198 335.8C238.198 318.8 233.998 304.7 225.598 293.5C217.198 282.1 203.798 276.4 185.398 276.4C166.398 276.4 152.598 282.1 143.998 293.5C135.598 304.7 131.398 318.8 131.398 335.8C131.398 352.8 135.598 367 143.998 378.4C152.598 389.8 166.398 395.5 185.398 395.5ZM455.096 389.5C473.096 389.1 486.396 388.7 494.996 388.3V445H336.296V388.3C357.896 389.1 374.196 389.5 385.196 389.5V286C377.996 301.8 363.296 312 341.096 316.6C340.496 293 338.296 271.5 334.496 252.1C350.496 249.9 361.596 247.2 367.796 244C374.196 240.6 379.096 236.9 382.496 232.9C386.096 228.9 388.496 226.2 389.696 224.8V224.2H455.096V389.5ZM539.663 448C530.863 448 523.363 444.9 517.163 438.7C510.963 432.3 507.863 424.7 507.863 415.9C507.863 407.1 510.963 399.6 517.163 393.4C523.363 387.2 530.863 384.1 539.663 384.1C548.263 384.1 555.663 387.3 561.863 393.7C568.263 399.9 571.463 407.3 571.463 415.9C571.463 424.7 568.263 432.3 561.863 438.7C555.663 444.9 548.263 448 539.663 448Z" fill="#A5FF14"/>
</svg>
