<svg width="628" height="628" viewBox="0 0 628 628" fill="none" xmlns="http://www.w3.org/2000/svg">
<path d="M77.5388 322.055C42.1708 297.304 19 255.971 19 209.162C19 133.41 79.6836 72 154.541 72C215.374 72 266.847 112.556 283.998 168.407C325.003 267.39 343.004 303.28 486.588 303.417C488.403 303.335 490.228 303.293 492.063 303.293C493.533 303.293 494.996 303.32 496.453 303.373C498.509 303.353 500.589 303.326 502.694 303.293C503.078 303.483 503.457 303.676 503.832 303.871C562.888 309.708 609 358.998 609 418.939C609 482.809 556.646 534.586 492.063 534.586C455.976 534.586 423.708 518.42 402.257 493.012C400.446 491.467 398.635 489.915 396.824 488.363C351.101 449.172 305.416 410.015 264.077 498.388C252.485 531.936 220.932 556 183.825 556C136.884 556 98.8301 517.491 98.8301 469.988C98.8301 449.679 105.786 431.013 117.418 416.299L117.333 416.25C117.617 415.949 117.898 415.65 118.177 415.352C120.237 412.821 122.437 410.41 124.766 408.133C161.336 366.805 147.561 357.838 108.87 338.343C97.939 334.385 87.6572 329.047 78.2296 322.536C77.9763 322.397 77.7225 322.258 77.4683 322.119L77.5388 322.055Z" fill="#656565"/>
<path d="M343.234 195.715C343.234 246.217 383.69 287.156 433.595 287.156C483.499 287.156 523.955 246.217 523.955 195.715C523.955 145.213 483.499 104.273 433.595 104.273C383.69 104.273 343.234 145.213 343.234 195.715Z" fill="#656565"/>
<path d="M141.153 448C98.1531 448 66.4531 438.1 46.0531 418.3C25.6531 398.5 15.4531 371 15.4531 335.8C15.4531 300.8 25.6531 273.5 46.0531 253.9C66.6531 234.1 98.3531 224.2 141.153 224.2C183.953 224.2 215.553 234.1 235.953 253.9C256.353 273.5 266.553 300.8 266.553 335.8C266.553 371 256.353 398.5 235.953 418.3C215.553 438.1 183.953 448 141.153 448ZM141.453 395.5C159.853 395.5 173.253 389.9 181.653 378.7C190.053 367.3 194.253 353 194.253 335.8C194.253 318.8 190.053 304.7 181.653 293.5C173.253 282.1 159.853 276.4 141.453 276.4C122.453 276.4 108.653 282.1 100.053 293.5C91.6531 304.7 87.4531 318.8 87.4531 335.8C87.4531 352.8 91.6531 367 100.053 378.4C108.653 389.8 122.453 395.5 141.453 395.5ZM457.951 334.6C465.151 333.2 472.251 332.5 479.251 332.5C491.451 332.5 501.351 334.6 508.951 338.8C516.751 342.8 522.351 348 525.751 354.4C529.151 360.6 530.851 367.1 530.851 373.9C530.851 389.7 525.651 403.2 515.251 414.4C504.851 425.4 490.751 433.8 472.951 439.6C455.151 445.2 435.351 448 413.551 448C350.351 448 309.451 426 290.851 382L307.651 377.8C320.051 374.8 330.551 372 339.151 369.4C347.951 366.6 355.651 363.5 362.251 360.1C366.251 370.1 371.951 377.3 379.351 381.7C386.951 385.9 397.351 388 410.551 388C424.551 388 435.951 386.4 444.751 383.2C453.551 380 457.951 375.2 457.951 368.8C457.951 365.4 456.251 362.8 452.851 361C449.451 359.2 444.051 358 436.651 357.4C429.251 356.6 418.851 356.2 405.451 356.2H382.651V303.7H396.451C411.651 303.7 424.051 303.1 433.651 301.9C443.251 300.5 448.051 297.6 448.051 293.2C448.051 288.2 445.451 284.2 440.251 281.2C435.251 278 427.351 276.4 416.551 276.4C402.551 276.4 391.151 279.3 382.351 285.1C373.751 290.9 367.051 299.3 362.251 310.3C340.851 301.7 318.051 295.6 293.851 292C303.451 270.4 318.151 253.7 337.951 241.9C357.951 230.1 383.651 224.2 415.051 224.2C435.451 224.2 453.751 226.9 469.951 232.3C486.351 237.5 499.151 244.8 508.351 254.2C517.751 263.6 522.451 274.1 522.451 285.7C522.451 292.5 520.851 298.6 517.651 304C514.451 309.2 508.151 314.4 498.751 319.6C489.351 324.6 475.751 329.6 457.951 334.6ZM583.609 448C574.809 448 567.309 444.9 561.109 438.7C554.909 432.3 551.809 424.7 551.809 415.9C551.809 407.1 554.909 399.6 561.109 393.4C567.309 387.2 574.809 384.1 583.609 384.1C592.209 384.1 599.609 387.3 605.809 393.7C612.209 399.9 615.409 407.3 615.409 415.9C615.409 424.7 612.209 432.3 605.809 438.7C599.609 444.9 592.209 448 583.609 448Z" fill="#A5FF14"/>
</svg>
