<svg width="1920" height="928" viewBox="0 0 1920 928" fill="none" xmlns="http://www.w3.org/2000/svg">
<mask id="mask0_2088_228577" style="mask-type:alpha" maskUnits="userSpaceOnUse" x="0" y="0" width="1920" height="928">
<rect width="1920" height="928" fill="#515151"/>
</mask>
<g mask="url(#mask0_2088_228577)">
<path d="M1816.88 857.679C1937.79 774.169 2017 634.714 2017 476.78C2017 221.194 1809.54 14 1553.64 14C1345.67 14 1169.7 150.834 1111.07 339.275C970.884 673.24 909.347 794.332 418.482 794.795C412.279 794.516 406.039 794.375 399.766 794.375C394.741 794.375 389.739 794.465 384.759 794.645C377.731 794.577 370.619 794.487 363.422 794.375C362.111 795.018 360.815 795.668 359.533 796.326C157.641 816.019 0 982.322 0 1184.56C0 1400.06 178.981 1574.75 399.766 1574.75C523.133 1574.75 633.449 1520.21 706.78 1434.48C712.971 1429.27 719.162 1424.03 725.353 1418.79C881.664 1286.57 1037.84 1154.45 1179.17 1452.62C1218.8 1565.81 1326.67 1647 1453.52 1647C1614 1647 1744.09 1517.07 1744.09 1356.8C1744.09 1288.28 1720.31 1225.3 1680.54 1175.65L1680.83 1175.49C1679.86 1174.47 1678.9 1173.46 1677.95 1172.46C1670.91 1163.92 1663.39 1155.79 1655.43 1148.1C1530.4 1008.66 1577.5 978.408 1709.77 912.632C1747.14 899.278 1782.29 881.267 1814.52 859.299C1815.38 858.832 1816.25 858.364 1817.12 857.894L1816.88 857.679Z" fill="#575757"/>
<path d="M908.559 431.41C908.559 601.801 770.255 739.93 599.649 739.93C429.042 739.93 290.739 601.801 290.739 431.41C290.739 261.019 429.042 122.89 599.649 122.89C770.255 122.89 908.559 261.019 908.559 431.41Z" fill="#575757"/>
</g>
</svg>
