<svg width="1920" height="790" viewBox="0 0 1920 790" fill="none" xmlns="http://www.w3.org/2000/svg">
<path d="M2331.23 1191.38C2502.07 1073.45 2614 876.525 2614 653.504C2614 292.584 2320.87 0 1959.27 0C1665.41 0 1416.77 193.227 1333.93 459.329C1135.85 930.928 1048.9 1101.93 355.311 1102.58C346.546 1102.19 337.729 1101.99 328.865 1101.99C321.765 1101.99 314.697 1102.11 307.661 1102.37C297.73 1102.27 287.68 1102.15 277.511 1101.99C275.659 1102.89 273.828 1103.81 272.017 1104.74C-13.2545 1132.55 -236 1367.39 -236 1652.98C-236 1957.29 16.8986 2203.97 328.865 2203.97C449.915 2203.97 562.072 2166.83 654.011 2103.59C694.468 2075.77 731.01 2042.89 762.673 2005.89C762.673 2005.89 780.168 1991.14 788.917 1983.74C800.121 1974.27 811.324 1964.8 822.525 1955.41C1032.12 1779.66 1240.59 1631.82 1430.15 2031.51C1486.15 2191.35 1638.57 2306 1817.81 2306C2044.56 2306 2228.38 2122.53 2228.38 1896.2C2228.38 1799.44 2194.78 1710.51 2138.59 1640.4L2139 1640.17C2137.63 1638.73 2136.27 1637.31 2134.92 1635.89C2124.97 1623.83 2114.35 1612.34 2103.1 1601.49C1926.45 1404.59 1992.99 1361.87 2179.88 1268.98C2232.68 1250.12 2282.35 1224.69 2327.89 1193.67C2329.11 1193.01 2330.34 1192.35 2331.57 1191.68L2331.23 1191.38Z" fill="#ECECEC"/>
<path d="M1047.78 589.435C1047.78 830.048 852.362 1025.1 611.297 1025.1C370.232 1025.1 174.811 830.048 174.811 589.435C174.811 348.821 370.232 153.766 611.297 153.766C852.362 153.766 1047.78 348.821 1047.78 589.435Z" fill="#ECECEC"/>
</svg>
