<svg width="600" height="486" viewBox="0 0 600 486" fill="none" xmlns="http://www.w3.org/2000/svg">
<path d="M540.468 251.089C576.436 226.235 599.999 184.732 599.999 137.729C599.999 61.6634 538.287 6.10352e-05 462.161 6.10352e-05C400.297 6.10352e-05 347.952 40.7235 330.51 96.8057C288.81 196.197 270.504 232.236 124.486 232.374C122.641 232.291 120.785 232.249 118.919 232.249C117.424 232.249 115.936 232.276 114.455 232.329C112.364 232.309 110.248 232.282 108.107 232.249C107.717 232.44 107.332 232.634 106.951 232.829C46.8937 238.69 0 288.184 0 348.373C0 412.507 53.2417 464.497 118.919 464.497C155.617 464.497 188.433 448.265 210.247 422.751C212.088 421.201 213.93 419.642 215.772 418.083C262.27 378.731 308.729 339.412 350.768 428.15C362.557 461.837 394.645 486 432.381 486C480.118 486 518.816 447.332 518.816 399.633C518.816 379.239 511.742 360.497 499.913 345.721L500 345.672C499.711 345.37 499.425 345.07 499.141 344.771C497.046 342.229 494.809 339.809 492.441 337.522C455.251 296.023 469.26 287.019 508.607 267.443C519.722 263.469 530.178 258.109 539.766 251.571C540.023 251.432 540.281 251.293 540.54 251.153L540.468 251.089Z" fill="url(#paint0_linear_562_17492)"/>
<path d="M270.27 124.226C270.27 174.936 229.129 216.045 178.378 216.045C127.628 216.045 86.4864 174.936 86.4864 124.226C86.4864 73.5157 127.628 32.4068 178.378 32.4068C229.129 32.4068 270.27 73.5157 270.27 124.226Z" fill="url(#paint1_linear_562_17492)"/>
<path fill-rule="evenodd" clip-rule="evenodd" d="M535.136 54.0126H156.758V432.092H535.136V54.0126ZM502.703 86.4194H189.19V399.685H502.703V86.4194Z" fill="white"/>
<path d="M540.47 251.089C576.437 226.235 600.001 184.732 600.001 137.729C600.001 61.6633 538.289 0 462.163 0C400.299 0 347.954 40.7234 330.512 96.8056C308.543 149.169 293.067 183.948 261.989 205.157C259.348 270.839 268.604 290.671 283.166 375.402C306.47 370.803 329.202 382.622 350.77 428.15C362.559 461.837 394.647 486 432.383 486C480.12 486 518.818 447.332 518.818 399.633C518.818 379.239 511.744 360.497 499.915 345.721L500.001 345.672C499.713 345.37 499.427 345.07 499.143 344.771C497.048 342.229 494.811 339.809 492.443 337.522C455.253 296.023 469.261 287.019 508.608 267.443C519.724 263.469 530.18 258.109 539.768 251.571C540.025 251.432 540.283 251.293 540.542 251.153L540.47 251.089Z" fill="url(#paint2_linear_562_17492)"/>
<defs>
<linearGradient id="paint0_linear_562_17492" x1="0" y1="243" x2="599.999" y2="243" gradientUnits="userSpaceOnUse">
<stop stop-color="#79D000"/>
<stop offset="0.5" stop-color="#A5FF14"/>
<stop offset="1" stop-color="#CCFF79"/>
</linearGradient>
<linearGradient id="paint1_linear_562_17492" x1="0" y1="243" x2="599.999" y2="243" gradientUnits="userSpaceOnUse">
<stop stop-color="#79D000"/>
<stop offset="0.5" stop-color="#A5FF14"/>
<stop offset="1" stop-color="#CCFF79"/>
</linearGradient>
<linearGradient id="paint2_linear_562_17492" x1="0.00114866" y1="243" x2="600" y2="243" gradientUnits="userSpaceOnUse">
<stop stop-color="#79D000"/>
<stop offset="0.5" stop-color="#A5FF14"/>
<stop offset="1" stop-color="#CCFF79"/>
</linearGradient>
</defs>
</svg>
