<svg width="713" height="453" viewBox="0 0 713 453" fill="none" xmlns="http://www.w3.org/2000/svg">
<g opacity="0.3">
<path d="M785.482 364.75C837.754 328.646 872 268.355 872 200.075C872 89.5768 782.312 0 671.676 0C581.766 0 505.691 59.1579 480.343 140.627C419.738 285.011 393.134 337.363 180.92 337.564C178.239 337.443 175.541 337.382 172.829 337.382C170.657 337.382 168.494 337.421 166.341 337.499C163.303 337.469 160.228 337.43 157.116 337.382C156.55 337.66 155.989 337.941 155.435 338.226C68.1523 346.739 0 418.638 0 506.073C0 599.238 77.3781 674.764 172.829 674.764C209.866 674.764 244.182 663.393 272.312 644.032C284.691 635.512 295.871 625.446 305.559 614.12C305.559 614.12 310.912 609.603 313.589 607.339C317.017 604.439 320.444 601.539 323.871 598.664C388 544.857 451.786 499.594 509.784 621.963C526.917 670.899 573.551 706 628.394 706C697.772 706 754.014 649.828 754.014 580.537C754.014 550.912 743.733 523.685 726.541 502.221L726.667 502.15C726.248 501.711 725.832 501.275 725.419 500.84C722.375 497.148 719.123 493.632 715.682 490.31C661.633 430.026 681.992 416.946 739.176 388.508C755.331 382.735 770.527 374.948 784.461 365.451C784.835 365.249 785.21 365.046 785.586 364.843L785.482 364.75Z" fill="url(#paint0_linear_405_17224)"/>
<path d="M392.793 180.46C392.793 254.126 333.001 313.844 259.243 313.844C185.486 313.844 125.694 254.126 125.694 180.46C125.694 106.794 185.486 47.0765 259.243 47.0765C333.001 47.0765 392.793 106.794 392.793 180.46Z" fill="url(#paint1_linear_405_17224)"/>
</g>
<defs>
<linearGradient id="paint0_linear_405_17224" x1="0" y1="353" x2="872" y2="353" gradientUnits="userSpaceOnUse">
<stop stop-color="#79D000"/>
<stop offset="0.5" stop-color="#A5FF14"/>
<stop offset="1" stop-color="#CCFF79"/>
</linearGradient>
<linearGradient id="paint1_linear_405_17224" x1="0" y1="353" x2="872" y2="353" gradientUnits="userSpaceOnUse">
<stop stop-color="#79D000"/>
<stop offset="0.5" stop-color="#A5FF14"/>
<stop offset="1" stop-color="#CCFF79"/>
</linearGradient>
</defs>
</svg>
