<svg width="441" height="503" viewBox="0 0 441 503" fill="none" xmlns="http://www.w3.org/2000/svg">
<g opacity="0.3">
<path d="M-259.361 317.259C-299.282 271.467 -316.783 207.536 -300.657 144.299C-274.562 41.9608 -170.283 -19.8039 -67.7437 6.34318C15.5855 27.5919 72.122 100.36 76.375 181.803C98.4461 329.846 110.739 384.62 307.374 434.958C309.888 435.48 312.402 436.061 314.916 436.702C316.929 437.216 318.925 437.763 320.901 438.344C323.725 439.035 326.583 439.725 329.479 440.416C329.938 440.807 330.391 441.2 330.837 441.595C409.722 470.107 455.906 552.802 435.257 633.78C413.255 720.065 323.704 771.725 235.239 749.167C200.912 740.414 171.793 721.773 150.294 697.194C140.834 686.378 132.849 674.412 126.545 661.634C126.545 661.634 122.65 656.185 120.704 653.456C118.212 649.96 115.72 646.464 113.223 642.991C66.495 578.002 18.0667 521.008 -64.5857 620.632C-92.0215 661.905 -143.533 683.392 -194.362 670.431C-258.662 654.035 -297.522 588.719 -281.158 524.545C-274.161 497.108 -258.203 474.322 -237.2 458.506L-237.3 458.411C-236.808 458.103 -236.319 457.798 -235.835 457.493C-232.141 454.792 -228.297 452.304 -224.323 450.041C-159.992 406.983 -175.772 390.058 -222.056 350.206C-235.665 341.041 -247.91 330.238 -258.581 318.149C-258.88 317.873 -259.18 317.597 -259.48 317.32L-259.361 317.259Z" fill="url(#paint0_linear_263_6542)"/>
<path d="M148.11 239.385C130.713 307.61 172.026 377.049 240.385 394.48C308.744 411.911 378.264 370.735 395.661 302.51C413.058 234.284 371.745 164.846 303.386 147.415C235.027 129.983 165.507 171.16 148.11 239.385Z" fill="url(#paint1_linear_263_6542)"/>
</g>
<defs>
<linearGradient id="paint0_linear_263_6542" x1="471.408" y1="492.012" x2="-336.773" y2="285.929" gradientUnits="userSpaceOnUse">
<stop stop-color="#79D000"/>
<stop offset="0.5" stop-color="#A5FF14"/>
<stop offset="1" stop-color="#CCFF79"/>
</linearGradient>
<linearGradient id="paint1_linear_263_6542" x1="471.408" y1="492.012" x2="-336.773" y2="285.929" gradientUnits="userSpaceOnUse">
<stop stop-color="#79D000"/>
<stop offset="0.5" stop-color="#A5FF14"/>
<stop offset="1" stop-color="#CCFF79"/>
</linearGradient>
</defs>
</svg>
