<svg width="30" height="32" viewBox="0 0 30 32" fill="none" xmlns="http://www.w3.org/2000/svg">
<path d="M29 15.064L15.7622 28.4406C14.1405 30.0794 11.941 31 9.64752 31C7.35406 31 5.15452 30.0794 3.5328 28.4406C1.91108 26.8019 1 24.5793 1 22.2618C1 19.9442 1.91108 17.7216 3.5328 16.0829L16.7706 2.70625C17.8517 1.61376 19.3181 1 20.847 1C22.376 1 23.8424 1.61376 24.9235 2.70625C26.0047 3.79874 26.6121 5.28048 26.6121 6.82549C26.6121 8.37051 26.0047 9.85225 24.9235 10.9447L11.6714 24.3214C11.1308 24.8676 10.3976 25.1745 9.63312 25.1745C8.86863 25.1745 8.13545 24.8676 7.59488 24.3214C7.0543 23.7751 6.75061 23.0343 6.75061 22.2618C6.75061 21.4892 7.0543 20.7484 7.59488 20.2021L19.8243 7.85895" stroke="#A5FF14" stroke-width="2" stroke-linecap="round" stroke-linejoin="round"/>
</svg>
