<svg width="250" height="250" viewBox="0 0 250 250" fill="none" xmlns="http://www.w3.org/2000/svg">
<path d="M158.498 56.499L140.19 39.3651C131.666 31.388 118.396 31.4577 109.956 39.524L36.7124 109.529C35.2585 110.927 34.1011 112.622 33.3141 114.508C32.5271 116.394 32.1275 118.429 32.141 120.484V202.794C32.141 206.72 33.6461 210.486 36.3251 213.261C39.0042 216.037 42.6379 217.597 46.4266 217.597H203.569C207.358 217.597 210.992 216.037 213.671 213.261C216.351 210.486 217.855 206.72 217.855 202.794V120.484C217.869 118.429 217.469 116.394 216.682 114.508C215.895 112.622 214.738 110.927 213.283 109.529L194.998 88.999" stroke="#A5FF14" stroke-width="9" stroke-linecap="round" stroke-linejoin="round"/>
<path d="M121 136.999H167.153C169.277 136.999 171 138.63 171 140.643V184.355C171 186.368 169.277 187.999 167.153 187.999H121" stroke="white" stroke-width="6" stroke-linecap="round" stroke-linejoin="round"/>
<path d="M171 125.999V106.621V101.644V96.6675V87.2308C171 85.4459 169.529 83.999 167.713 83.999H128.287C126.471 83.999 125 85.4459 125 87.2308V125.999" stroke="white" stroke-width="6" stroke-linecap="round" stroke-linejoin="round"/>
<path d="M125 155.353V140.643C125 138.63 123.497 136.999 121.642 136.999H81.3581C79.5035 136.999 78 138.63 78 140.643V184.355C78 186.368 79.5035 187.999 81.3581 187.999H121.642C123.497 187.999 125 186.368 125 184.355V172.578" stroke="white" stroke-width="6" stroke-linecap="round" stroke-linejoin="round"/>
</svg>
