<svg width="250" height="250" viewBox="0 0 250 250" fill="none" xmlns="http://www.w3.org/2000/svg">
<path d="M131.715 123.571C129.596 124.491 127.311 124.966 125.001 124.966C122.691 124.966 120.406 124.491 118.287 123.571L36.8582 85.8564C35.536 85.1895 34.4248 84.1687 33.6484 82.9075C32.872 81.6464 32.4609 80.1945 32.4609 78.7135C32.4609 77.2325 32.872 75.7807 33.6484 74.5195C34.4248 73.2585 35.536 72.2377 36.8582 71.5707L118.287 33.5707C120.406 32.6506 122.691 32.1758 125.001 32.1758C127.311 32.1758 129.596 32.6506 131.715 33.5707L213.144 71.285C214.466 71.952 215.578 72.9728 216.354 74.2338C217.131 75.495 217.541 76.9468 217.541 78.4278C217.541 79.9088 217.131 81.3607 216.354 82.6218C215.578 83.883 214.466 84.9038 213.144 85.5707L131.715 123.571Z" stroke="#A5FF14" stroke-width="9" stroke-linecap="round" stroke-linejoin="round"/>
<path d="M52 110L36.8582 119.395C35.536 120.062 34.4248 121.083 33.6484 122.344C32.872 123.605 32.4609 125.057 32.4609 126.538C32.4609 128.019 32.872 129.471 33.6484 130.732C34.4248 131.993 35.536 133.014 36.8582 133.681L118.287 171.395C120.406 172.315 122.691 172.79 125.001 172.79C127.311 172.79 129.596 172.315 131.715 171.395L213.144 133.395C214.466 132.728 215.578 131.707 216.354 130.446C217.131 129.185 217.541 127.733 217.541 126.252C217.541 124.771 217.131 123.319 216.354 122.058C215.578 120.797 214.466 119.776 213.144 119.109L196.5 110.5" stroke="white" stroke-width="9" stroke-linecap="round" stroke-linejoin="round"/>
<path d="M52 157L36.8582 166.395C35.536 167.062 34.4248 168.083 33.6484 169.344C32.872 170.605 32.4609 172.057 32.4609 173.538C32.4609 175.019 32.872 176.471 33.6484 177.732C34.4248 178.993 35.536 180.014 36.8582 180.681L118.287 218.395C120.406 219.315 122.691 219.79 125.001 219.79C127.311 219.79 129.596 219.315 131.715 218.395L213.144 180.395C214.466 179.728 215.578 178.707 216.354 177.446C217.131 176.185 217.541 174.733 217.541 173.252C217.541 171.771 217.131 170.319 216.354 169.058C215.578 167.797 214.466 166.776 213.144 166.109L196.5 157.5" stroke="#A5FF14" stroke-width="9" stroke-linecap="round" stroke-linejoin="round"/>
<circle cx="55" cy="125" r="4" fill="white"/>
<circle cx="77" cy="120" r="4" fill="white"/>
<circle cx="87" cy="139" r="4" fill="white"/>
<circle cx="111" cy="136" r="4" fill="white"/>
<circle cx="124" cy="155" r="4" fill="white"/>
<circle cx="140" cy="136" r="4" fill="white"/>
<circle cx="163" cy="141" r="4" fill="white"/>
<circle cx="173" cy="121" r="4" fill="white"/>
<circle cx="195" cy="126" r="4" fill="white"/>
</svg>
