<svg width="250" height="250" viewBox="0 0 250 250" fill="none" xmlns="http://www.w3.org/2000/svg">
<path d="M100 119.543C127.573 113.445 144.67 83.6797 149.07 65.2492C149.648 62.8273 151.836 60.835 154.134 61.7937C166.651 67.016 162.029 96.8581 154.891 116.901M145.082 116.901H205.595C221.286 116.901 227.747 139.615 206.289 142.936M185.553 142.936H208.341C224.753 143.518 220.262 167.759 204.792 167.759M185.553 167.759H205.456C218.266 168.608 218.266 194.255 197.307 193.795M190.261 193.795H198.216C207.287 195.371 208.747 214.513 190.405 216H143.147C136.751 216 130.449 214.467 124.769 211.528L100 198.716" stroke="#A5FF14" stroke-width="8" stroke-linecap="round" stroke-linejoin="round"/>
<path d="M34 109C34 105.686 36.6863 103 40 103H68.9309C77.2151 103 83.9309 109.716 83.9309 118V197.417C83.9309 205.701 77.2151 212.417 68.9309 212.417H40C36.6863 212.417 34 209.731 34 206.417V109Z" stroke="#A5FF14" stroke-width="8"/>
<ellipse cx="58.9675" cy="182.254" rx="7.04565" ry="7.04501" fill="white"/>
<path d="M112.523 35.6133L127.789 50.4861" stroke="white" stroke-width="8" stroke-linecap="round"/>
<path d="M153.234 18V39.9178" stroke="white" stroke-width="8" stroke-linecap="round"/>
<path d="M193.941 35.2207L178.676 50.8763" stroke="white" stroke-width="8" stroke-linecap="round"/>
</svg>
