<svg width="547" height="270" viewBox="0 0 547 270" fill="none" xmlns="http://www.w3.org/2000/svg">
<mask id="mask0_2002_4454" style="mask-type:alpha" maskUnits="userSpaceOnUse" x="0" y="0" width="547" height="270">
<rect width="547" height="270" rx="15" fill="#27272D"/>
</mask>
<g mask="url(#mask0_2002_4454)">
<path d="M-113.916 -204.084C-116.275 -275.98 -84.461 -347.808 -22.2931 -393.889C78.3146 -468.464 220.321 -447.369 294.887 -346.772C355.484 -265.021 352.895 -155.924 295.802 -77.8933C205.189 74.6556 175.453 134.178 318.298 327.269C320.215 329.626 322.089 332.037 323.917 334.504C325.381 336.479 326.803 338.472 328.183 340.481C330.258 343.224 332.366 345.994 334.507 348.79C334.636 349.493 334.757 350.192 334.872 350.888C385.947 435.997 366.417 546.488 286.809 605.497C201.983 668.374 81.0664 648.989 16.7347 562.2C-19.2118 513.705 -29.8853 454.426 -17.5073 400.586C-17.26 396.632 -17.0024 392.671 -16.7448 388.709C-10.2414 288.683 -3.74366 188.741 -162.291 220.187C-218.394 237.635 -281.784 218.921 -318.747 169.055C-365.506 105.973 -352.268 16.9248 -289.178 -29.8395C-262.205 -49.8331 -230.487 -58.8606 -199.357 -57.7143L-199.377 -57.8768C-198.695 -57.7916 -198.017 -57.708 -197.344 -57.626C-191.93 -57.3501 -186.537 -56.7665 -181.194 -55.8793C-89.8772 -47.4197 -91.6894 -74.7588 -104.339 -145.946C-109.97 -164.532 -113.122 -183.604 -113.866 -202.683C-113.934 -203.16 -114.003 -203.637 -114.071 -204.116L-113.916 -204.084Z" fill="#3D3D3D"/>
<path d="M318.542 28.5948C251.47 78.3111 237.396 172.981 287.107 240.045C336.818 307.109 431.489 321.173 498.56 271.456C565.632 221.74 579.706 127.071 529.995 60.0062C480.284 -7.05817 385.613 -21.1215 318.542 28.5948Z" fill="#3D3D3D"/>
</g>
</svg>
