<svg width="907" height="1082" viewBox="0 0 907 1082" fill="none" xmlns="http://www.w3.org/2000/svg">
<path d="M233.014 234.834C230.655 162.939 262.469 91.1105 324.637 45.0291C425.244 -29.5454 567.251 -8.45042 641.817 92.1461C702.414 173.897 699.825 282.994 642.732 361.025C552.119 513.574 522.383 573.096 665.228 766.187C667.145 768.544 669.019 770.956 670.847 773.422C672.311 775.397 673.733 777.39 675.113 779.399C677.188 782.143 679.295 784.912 681.437 787.708C681.565 788.411 681.687 789.11 681.801 789.806C732.877 874.915 713.347 985.406 633.738 1044.42C548.912 1107.29 427.996 1087.91 363.664 1001.12C327.718 952.623 317.044 893.344 329.422 839.505C329.67 835.551 329.927 831.589 330.185 827.627C336.688 727.601 343.186 627.659 184.639 659.105C128.536 676.553 65.1461 657.84 28.1831 607.973C-18.576 544.891 -5.33789 455.843 57.7512 409.079C84.7244 389.085 116.443 380.058 147.573 381.204L147.553 381.041C148.235 381.127 148.912 381.21 149.586 381.292C155 381.568 160.393 382.152 165.736 383.039C257.053 391.499 255.24 364.159 242.591 292.972C236.96 274.387 233.808 255.314 233.064 236.235C232.995 235.758 232.927 235.281 232.859 234.802L233.014 234.834Z" fill="#3D3D3D"/>
<path d="M665.471 467.513C598.399 517.229 584.326 611.899 634.037 678.963C683.747 746.027 778.418 760.091 845.49 710.374C912.562 660.658 926.636 565.989 876.925 498.924C827.214 431.86 732.543 417.797 665.471 467.513Z" fill="#3D3D3D"/>
</svg>
